<svg
    xmlns="http://www.w3.org/2000/svg"
    viewBox="0 0 415 415"
    id="vector">
    <path
        id="path"
        d="M 414.9 375 C 406.9 350.5 394.7 327.3 384.3 304 C 383.1 300.9 378.2 300.9 376.3 302.8 C 365.9 313.8 354.3 324.8 347.5 338.3 L 346.9 338.3 C 272.2 343.8 200 280.2 148.6 233.6 C 89.2 180.4 35.4 115.5 14 37.8 C 12.8 28 11.6 17.6 11.6 7.2 C 11.6 2.3 4.9 2.3 4.3 7.2 C 4.3 9 4.3 10.9 4.3 12.7 C 1.8 12.7 0 14.5 0 17.6 C 0.6 24.3 2.4 31.1 3.7 37.8 C 8.6 203.6 173.8 363.4 335.4 373.8 C 329.9 383.6 325 394 318.9 403.8 C 315.8 408.1 320.7 412.4 325 411.8 C 355.6 407.5 383.1 392.8 411.3 381.8 C 413.7 381.1 416.2 378.7 414.9 375 Z M 332.9 399.5 C 336.6 391.5 339 383.6 343.3 375.6 C 344.5 372.5 342.7 370.1 340.9 369.5 C 340.9 367.7 339.7 366.4 337.8 365.8 C 191.5 341.3 72.8 241.6 28.7 106.3 C 57.5 159.5 101.5 206.1 145 245.2 C 176.8 274 210.5 299.7 247.2 321.1 C 276 337.6 312.1 352.9 345.1 342.5 L 345.1 342.5 C 343.3 347.4 350.6 349.8 353.1 346.2 C 361.1 335.8 369 326 377.6 316.8 C 386.2 335.8 395.3 354.7 402.1 374.3 C 379.4 382.9 356.8 394 332.9 399.5 Z"
        fill="#ffffff"/>
</svg>
