<?xml version="1.0" encoding="UTF-8" standalone="no"?>
<svg
   xmlns:dc="http://purl.org/dc/elements/1.1/"
   xmlns:cc="http://creativecommons.org/ns#"
   xmlns:rdf="http://www.w3.org/1999/02/22-rdf-syntax-ns#"
   xmlns:svg="http://www.w3.org/2000/svg"
   xmlns="http://www.w3.org/2000/svg"
   id="svg135"
   version="1.1"
   viewBox="0 0 33.866666 8.4666664"
   height="32"
   width="128">
  <defs
     id="defs129" />
  <metadata
     id="metadata132">
    <rdf:RDF>
      <cc:Work
         rdf:about="">
        <dc:format>image/svg+xml</dc:format>
        <dc:type
           rdf:resource="http://purl.org/dc/dcmitype/StillImage" />
        <dc:title></dc:title>
      </cc:Work>
    </rdf:RDF>
  </metadata>
  <g
     transform="translate(0,-288.53334)"
     id="layer1">
    <g
       id="text139"
       style="font-style:normal;font-weight:normal;font-size:10.58333302px;line-height:1.25;font-family:sans-serif;letter-spacing:0px;word-spacing:0px;fill:#ffffff;fill-opacity:1;stroke:none;stroke-width:0.26458332"
       aria-label="start here">
      <path
         id="path946"
         style="font-style:normal;font-variant:normal;font-weight:normal;font-stretch:normal;font-size:4.23333311px;font-family:'the unseen';-inkscape-font-specification:'the unseen';fill:#ffffff;stroke-width:0.26458332"
         d="m 8.0952728,291.98352 q 0.097367,0 0.1862666,0.0169 0.093133,0.0127 0.1778,0.0508 0.0889,0.0381 0.1735667,0.10584 0.084667,0.0677 0.1735666,0.18203 0.021167,0.0296 0.042333,0.0677 0.0254,0.0381 0.0381,0.0847 0.016933,0.0423 0.021167,0.0889 0.00423,0.0423 -0.0127,0.0804 l -0.0127,0.004 q -0.00847,0.008 -0.021167,0.008 h -0.00423 q -0.0762,-0.0212 -0.1439333,-0.0889 -0.067733,-0.0677 -0.127,-0.11853 -0.0127,-0.0127 -0.055033,-0.0466 -0.0381,-0.0381 -0.055033,-0.0466 -0.00847,-0.008 0.00423,-0.0127 0.016933,-0.004 0.0254,-0.0127 -0.071967,-0.0339 -0.127,-0.055 -0.0508,-0.0254 -0.1354667,-0.0508 -0.1016,-0.0296 -0.1862666,-0.0466 -0.084667,-0.0212 -0.1608667,-0.0212 -0.071967,-0.004 -0.1439333,0.0169 -0.071967,0.0169 -0.1481667,0.0593 -0.055033,0.0508 -0.093133,0.10583 -0.0381,0.0508 -0.059267,0.11007 -0.021167,0.0466 -0.029633,0.0974 -0.00847,0.0508 -0.016933,0.1016 0.067733,0.0466 0.1566333,0.0762 0.0889,0.0296 0.1651,0.0423 0.1481666,0.0169 0.2963333,0.0169 0.1524,0 0.2963333,0.0254 0.1439333,0.0254 0.2751667,0.0974 0.1354666,0.0677 0.2497666,0.22437 l 0.071967,0.0635 q 0.0508,0.0466 0.059267,0.1143 0.0127,0.0677 0.033867,0.13123 0.029633,0.0847 0.021167,0.17357 -0.00423,0.0889 -0.029633,0.16933 -0.029633,0.11007 -0.1185333,0.21167 -0.1481666,0.18203 -0.3852333,0.25823 -0.2328333,0.0804 -0.4868333,0.0847 -0.055033,0 -0.1481667,-0.0296 -0.0889,-0.0254 -0.1820333,-0.0593 -0.021167,0.008 -0.046567,-0.004 l -0.046567,-0.0296 -0.1439333,-0.0593 q -0.00423,0 -0.00847,0 0,-0.004 -0.00423,-0.004 -0.00423,0 -0.00423,-0.004 l -0.00423,-0.008 q -0.059267,-0.0212 -0.1185333,-0.0381 -0.055033,-0.0212 -0.1100667,-0.0423 v -0.0804 q 0.0508,0 0.1058333,0.0169 0.059267,0.0169 0.1185334,0.0381 -0.055033,-0.0423 -0.0889,-0.0847 -0.033867,-0.0466 -0.0127,-0.0804 0.0127,-0.0212 0.029633,-0.0169 0.021167,0 0.0381,0.0127 l 0.016933,-0.0169 0.0508,0.0593 q 0.067733,0.0508 0.1693334,0.0974 0.1058333,0.0423 0.1904999,0.0889 0.00847,-0.0254 0.0508,-0.0127 0.046567,0.0212 0.055033,0.0677 0.033867,0 0.059267,0.004 0.029633,0 0.055033,-0.008 0.1016,-0.0169 0.2074333,-0.0635 0.1100666,-0.0466 0.2032,-0.1143 0.097367,-0.072 0.1735666,-0.15663 0.0762,-0.0847 0.1100667,-0.1778 0.0254,-0.0677 0.0381,-0.1397 -0.021167,-0.0296 -0.042333,-0.055 -0.021167,-0.0296 -0.0508,-0.0508 -0.1100667,-0.0804 -0.2243667,-0.12277 -0.1100667,-0.0423 -0.2243666,-0.0677 -0.1143,-0.0296 -0.2286,-0.0593 -0.1143,-0.0296 -0.2328334,-0.0804 -0.021167,-0.004 -0.059267,-0.0169 -0.033867,-0.0169 -0.080433,-0.0381 -0.046567,-0.0212 -0.097367,-0.0466 -0.0508,-0.0254 -0.093133,-0.055 -0.084667,-0.0296 -0.1524,-0.0677 -0.0635,-0.0381 -0.0762,-0.0889 -0.016933,-0.0635 -0.042333,-0.13123 -0.029633,-0.072 -0.00423,-0.12277 0.021167,-0.0466 0.0381,-0.0974 0.016933,-0.055 0.059267,-0.0889 l 0.055033,-0.0466 q 0.097367,-0.11854 0.2032,-0.1905 0.1100667,-0.072 0.2751666,-0.0931 v -0.008 h 0.00847 q 0.0508,-0.0127 0.1185333,-0.0127 0.042333,-0.008 0.080433,-0.0127 0.0381,-0.008 0.071967,-0.004 z m 0.6307666,1.36313 q 0.029633,0.0381 0.0635,0.0593 0.00423,-0.008 0.00423,-0.0212 0,-0.0127 0.00847,-0.0254 -0.029633,-0.0381 -0.0508,-0.0804 -0.016933,-0.0466 -0.059267,-0.0762 -0.0889,-0.0635 -0.2116666,-0.0974 -0.1227667,-0.0339 -0.2582333,-0.0508 -0.1312334,-0.0169 -0.2582334,-0.0254 -0.127,-0.008 -0.2286,-0.0254 0.1312334,0.0381 0.2836334,0.0762 0.1566333,0.0381 0.2963333,0.0804 0.1397,0.0381 0.2497666,0.0847 0.1100667,0.0466 0.1608667,0.1016 z m 0.080433,0.5207 q 0.0127,-0.0931 0.0127,-0.19473 l -0.0127,0.0212 q -0.080433,0.127 -0.2032,0.25823 -0.1227666,0.127 -0.2751666,0.20743 l 0.0889,-0.008 0.00423,-0.004 q 0.0508,-0.0169 0.1100667,-0.0381 0.0635,-0.0254 0.1185333,-0.055 0.059267,-0.0339 0.1016,-0.0762 0.046567,-0.0466 0.055033,-0.11007 z m -1.0202333,-0.9906 q -0.046567,-0.008 -0.1058333,-0.0169 -0.059267,-0.0127 -0.1227666,-0.0339 l -0.1143,-0.0339 q 0.0127,0.0254 0.0381,0.0508 0.127,0.0466 0.2497666,0.0635 0.1227667,0.0169 0.2413,0.0254 0.1185333,0.008 0.2413,0.0254 0.1227666,0.0169 0.2497666,0.0677 0.033867,0.0127 0.097367,0.0381 0.0635,0.0212 0.1354667,0.055 -0.1058334,-0.0677 -0.2286,-0.10583 -0.1227667,-0.0423 -0.2455333,-0.0635 -0.1185334,-0.0254 -0.2328334,-0.0381 -0.1143,-0.0127 -0.2032,-0.0339 z m 0.4360334,-0.72813 q 0.084667,0.0254 0.1650999,0.0635 0.084667,0.0339 0.1651,0.072 0.033867,0.0169 0.059267,0.0508 0.0254,0.0296 0.046567,0.0677 0.0254,0.0381 0.0508,0.0762 0.029633,0.0381 0.0635,0.0677 -0.0889,-0.16933 -0.2201334,-0.26246 -0.127,-0.0974 -0.3132666,-0.14817 l 0.021167,0.0212 z m 0.7111999,1.4478 q 0,-0.0931 -0.0508,-0.2159 l -0.0127,0.10583 q 0.042333,0.055 0.042333,0.10584 -0.00423,0.055 -0.00423,0.11006 0,0.0508 -0.00847,0.10584 0.021167,-0.0466 0.029633,-0.11007 0.00423,-0.0254 0.00423,-0.0508 0,-0.0254 0,-0.0508 z m -1.5705666,-1.16417 q 0.00847,-0.0296 0.0254,-0.0635 0.016933,-0.0381 0.042333,-0.072 -0.059267,0.0593 -0.1016,0.14393 -0.00847,0.0169 -0.00847,0.0593 -0.00847,0.0381 0.0127,0.072 z m 0.5630333,1.83304 q 0.0508,0.008 0.1100667,0.008 0.0635,0.004 0.1312333,-0.004 h -0.0889 q -0.055033,-0.004 -0.1058333,-0.008 -0.046567,0 -0.1016,-0.008 h -0.0127 q 0.021167,0.008 0.033867,0.008 0.016933,0 0.033867,0.004 z m 0.5376333,-0.127 q -0.00423,0 -0.00847,0.004 0,0 -0.00423,0 0.00847,0 0.0127,-0.004 z" />
      <path
         id="path948"
         style="font-style:normal;font-variant:normal;font-weight:normal;font-stretch:normal;font-size:4.23333311px;font-family:'the unseen';-inkscape-font-specification:'the unseen';fill:#ffffff;stroke-width:0.26458332"
         d="m 9.2069857,292.46612 q 0.0508,0.008 0.1016,0.0169 0.055033,0.008 0.1058334,0.0127 l 0.00847,-0.1143 q -0.0254,-0.008 -0.029633,-0.0254 -0.033867,-0.2794 -0.033867,-0.54186 0.00423,-0.26247 0.00423,-0.5461 0.016933,0 0.029633,0 0.0127,-0.004 0.029633,-0.004 0.00423,0 0.00847,0 0.00423,-0.004 0.0127,-0.004 h 0.00423 v 0.0127 q 0,0.11007 -0.00423,0.22013 0,0.11007 0,0.22014 l 0.00847,-0.23284 q 0.0127,-0.0339 0.042333,-0.0296 0.033867,0 0.042333,0.0381 l -0.00847,0.50377 q 0.0127,-0.0593 0.021167,-0.1524 0.0127,-0.0974 0.021167,-0.1651 0,-0.0381 0,-0.0762 0,-0.0381 -0.00423,-0.0762 l -0.0127,-0.0889 q -0.021167,-0.004 -0.029633,-0.0212 -0.00423,-0.0212 0.0127,-0.0466 l 0.0127,-0.008 q 0,-0.0169 0,-0.0339 0,-0.0169 0.00423,-0.0339 0.021167,0 0.0381,0 0.021167,-0.004 0.042333,-0.008 0.0254,0.0593 0.029633,0.1397 0.00423,0.0804 -0.00423,0.1778 0.00423,0.0296 0.00423,0.0593 0.00423,0.0254 0.00423,0.055 l -0.016933,0.55456 q 0.00423,0.0423 0.00423,0.072 0.00423,0.0254 0.00423,0.0508 0.00423,0.0212 0.00423,0.0508 0.00423,0.0254 0.00423,0.0677 0.00423,0 0.00423,0.004 0.00423,0 0.00847,0 l 0.055033,-0.0423 q 0.1100666,-0.008 0.1989666,-0.0169 0.093133,-0.008 0.1651,-0.0169 0.01693,-0.0169 0.04233,-0.0127 0.0085,0.004 0.01693,0.004 v 0.0169 l 0.0085,0.0508 q 0.08043,0.008 0.156634,0.0127 0.08043,0 0.160866,0.004 h 0.0042 l 0.0127,0.0847 h -0.01693 q -0.08467,0 -0.173566,0.0169 -0.08467,0.0127 -0.182034,0.0254 -0.09737,0.0127 -0.2116663,0.0212 -0.1100667,0.004 -0.2497667,-0.0127 -0.00423,0.008 -0.00423,0.0296 0.1397,0.008 0.2243667,0.008 0.0889,-0.004 0.1650996,-0.008 0.0762,-0.004 0.160867,-0.008 0.0889,-0.004 0.2286,-0.004 0.01693,-0.0212 0.04233,-0.0169 l 0.05503,0.0212 -0.0254,0.0804 q -0.1524,0 -0.254,0.004 -0.09737,0.004 -0.186267,0.008 -0.084667,0.004 -0.1862666,0.004 -0.097367,0 -0.2497667,-0.008 l -0.00423,0.0169 q 0,0.11854 -0.00847,0.25824 -0.00423,0.1397 -0.00423,0.28363 0.00423,0.1397 0.021167,0.27517 0.021167,0.13123 0.0762,0.23283 0.033867,0.072 0.084667,0.127 0.071967,0.0339 0.1735667,0.0593 0.1015996,0.0254 0.2074336,0.0339 0.160866,-0.0423 0.2921,-0.16933 0.135466,-0.127 0.1905,-0.3048 0.0085,-0.0381 0.0127,-0.0762 0.0042,-0.0381 0.01693,-0.0762 0,-0.004 0,-0.004 0.0042,-0.004 0.0042,-0.008 l 0.0254,0.008 q 0.01693,0 0.02963,0.004 0.0127,0 0.02963,0 0,0.0127 -0.0042,0.0254 0,0.0127 0,0.0254 0.0254,0.008 0.02963,0.0381 0,0.1143 -0.0042,0.24553 -0.0042,0.13124 -0.08043,0.2286 -0.0762,0.1016 -0.2032,0.15664 -0.122766,0.0508 -0.262466,0.0593 -0.135467,0.008 -0.2709336,-0.0296 -0.1354667,-0.0423 -0.2286,-0.13123 l -0.0762,-0.0466 q -0.033867,-0.0169 -0.0635,-0.0508 l -0.0127,-0.0127 q -0.046567,-0.0423 -0.0889,-0.0889 -0.0381,-0.0508 -0.0635,-0.0974 -0.0254,-0.0466 -0.0381,-0.13546 -0.00847,-0.0889 -0.00847,-0.19474 0,-0.11006 0.00423,-0.2286 0.00423,-0.11853 0,-0.2286 -0.0127,-0.11853 -0.0127,-0.2032 -0.059267,-0.004 -0.1185334,-0.004 -0.059267,0 -0.1185333,0 -0.0381,-0.008 -0.0381,-0.0381 0,-0.0339 0.0381,-0.0466 0.059267,0 0.1185333,0 0.0635,0 0.1227667,0.004 v -0.0508 q -0.1693333,-0.0212 -0.254,-0.072 0.00423,-0.008 0.00423,-0.0127 0,-0.004 0.00423,-0.008 -0.00847,-0.0339 0.0127,-0.0508 v -0.004 h 0.0127 q 0.00847,-0.004 0.021167,0 h 0.00423 q 0.033867,0.008 0.042333,0.0296 0.033867,0.0127 0.071967,0.0212 0.042333,0.004 0.0889,0.0127 v -0.0339 l 0.093133,0.008 q -0.00423,0.0127 -0.00423,0.0381 h 0.042333 v -0.0381 q 0.033867,0.004 0.059267,0.004 0.029633,0 0.0635,0 v 0.0423 q 0.0508,0 0.046567,-0.0127 0,-0.0127 -0.0127,-0.0254 -0.0127,-0.0169 -0.016933,-0.0296 0,-0.0127 0.0508,-0.0127 l 0.4317996,0.0254 0.0042,0.0127 h -0.0085 v 0.004 h -0.0127 q -0.0635,0.0127 -0.105833,0.0339 -0.0381,0.0212 -0.084667,0.0423 -0.046567,0.0212 -0.1143,0.0381 -0.0635,0.0127 -0.1778,0.008 v 0.0127 l -0.1185333,-0.0169 v -0.004 h -0.0254 q -0.067733,-0.0127 -0.1185333,-0.0339 l -0.016933,-0.0127 q -0.0508,-0.008 -0.1016,-0.0127 -0.046567,-0.008 -0.093133,-0.0169 -0.029633,-0.0127 -0.033867,-0.0296 l 0.0127,-0.0508 q 0.00423,0 0.00423,0 0.00423,-0.004 0.00847,-0.004 z m 0.2878667,0.44027 q 0,0.0296 -0.00423,0.0762 0,0.0423 -0.00423,0.0931 0,0.0466 0,0.0931 0,0.0423 0.00847,0.072 0,-0.0381 0.00847,-0.0889 0.00847,-0.055 0.016933,-0.11007 0.00847,-0.0593 0.016933,-0.11006 0.0127,-0.0508 0.016933,-0.0889 -0.00423,-0.0212 -0.00423,-0.0423 0,-0.0254 0,-0.0466 h -0.059267 q 0,0.0339 0,0.072 0,0.0381 0.00423,0.0804 z m 0.071967,-0.69427 q -0.00423,0.0212 -0.00847,0.0254 -0.00423,0.004 -0.00847,0.004 -0.00423,0 -0.00847,0 0,0 0,0.0169 -0.0127,0.072 -0.021167,0.13123 -0.00423,0.055 -0.0127,0.1143 h 0.0381 q 0,-0.0466 0,-0.0762 0.00423,-0.0296 0.00423,-0.055 0.00423,-0.0296 0.00847,-0.0635 0.00423,-0.0381 0.00847,-0.0974 z m 0.982133,1.71873 q 0.0508,-0.0593 0.0762,-0.11853 -0.0762,0.1016 -0.156633,0.1778 0.0508,-0.0296 0.08043,-0.0593 z m -1.0540996,-1.26153 h 0.055033 v -0.0381 q -0.00847,-0.004 -0.0254,-0.004 h -0.029633 z m 0.097367,1.05833 v 0.004 q -0.0127,-0.0423 -0.021167,-0.0762 -0.00423,-0.0381 -0.0127,-0.072 -0.00423,0.0127 -0.016933,0.0169 0.00847,0.0339 0.021167,0.0635 0.0127,0.0296 0.029633,0.0635 z m -0.071967,-0.27516 0.021167,0.0508 -0.0254,-0.15664 q 0,0.0254 0,0.0508 0,0.0254 0.00423,0.055 z m 1.1175996,0.49953 0.02117,-0.0254 q 0.0508,-0.0677 0.0635,-0.16087 -0.0127,0.0466 -0.03387,0.0931 -0.01693,0.0466 -0.0508,0.0931 z" />
      <path
         id="path950"
         style="font-style:normal;font-variant:normal;font-weight:normal;font-stretch:normal;font-size:4.23333311px;font-family:'the unseen';-inkscape-font-specification:'the unseen';fill:#ffffff;stroke-width:0.26458332"
         d="m 11.043723,292.52115 q -0.0085,-0.055 0.0254,-0.1016 0.03387,-0.0466 0.08043,-0.0804 l 0.0127,-0.0339 q 0.2286,-0.14816 0.4953,-0.21166 0.2667,-0.0635 0.529167,-0.0804 0.07197,-0.004 0.135467,0.0339 0.06773,0.0339 0.135466,0.0593 0.05503,0.0212 0.1016,0.0804 0.04657,0.055 0.08467,0.12277 0.0381,0.0677 0.06773,0.1397 0.02963,0.0677 0.04233,0.1143 0.07197,0.2286 0.08467,0.46566 0.0127,0.23707 0.01693,0.47414 0,0.11006 0.0042,0.24976 0.0085,0.13547 -0.0127,0.254 -0.0127,0 -0.0254,0 -0.0085,-0.004 -0.01693,-0.004 0,0.072 -0.0085,0.14393 -0.0042,0.0677 -0.0254,0.11854 l -0.08467,-0.008 q -0.0127,-0.072 0.0042,-0.14817 0.02117,-0.0762 0.0381,-0.14816 0,-0.0466 0,-0.0974 0,-0.0508 -0.0042,-0.1016 l -0.0127,0.0339 q -0.0127,0.0466 -0.05503,0.0931 -0.04233,0.0423 -0.09737,0.0847 -0.0508,0.0381 -0.110066,0.072 -0.05927,0.0339 -0.110067,0.0593 -0.118533,0.0635 -0.254,0.0974 -0.135467,0.0381 -0.270933,0.0339 -0.131234,-0.004 -0.254,-0.055 -0.118534,-0.055 -0.2032,-0.16933 -0.160867,-0.0635 -0.270934,-0.1905 -0.105833,-0.13124 -0.105833,-0.3302 -0.02963,-0.0931 -0.01693,-0.19474 0.0127,-0.10583 0.05503,-0.19473 0.04657,-0.0931 0.1143,-0.16933 0.07197,-0.0762 0.156633,-0.1143 0.09313,-0.11007 0.1905,-0.18627 0.1016,-0.0762 0.198967,-0.0847 0.08467,-0.004 0.1651,-0.0169 0.08467,-0.0127 0.160867,0.0212 0.07197,0.0296 0.143933,0.055 0.07197,0.0254 0.1397,0.0635 0.02963,0.004 0.05503,0.008 0.02963,0.004 0.05927,0.0127 0.0508,0.008 0.1016,0.0381 0.0508,0.0254 0.08043,0.072 0.0042,0.008 0.0085,0.0169 0.0042,0.004 0.0085,0.0127 0,-0.008 -0.0042,-0.0169 0,-0.008 0,-0.0169 -0.02117,-0.11007 -0.05503,-0.2413 -0.02963,-0.13547 -0.1016,-0.23707 -0.0085,-0.008 -0.0085,-0.008 -0.110066,-0.0804 -0.258233,-0.11007 -0.143933,-0.0339 -0.2921,-0.0254 -0.118533,0.0339 -0.220133,0.0974 -0.1016,0.0635 -0.198967,0.127 -0.09313,0.0635 -0.186267,0.11006 -0.09313,0.0466 -0.194733,0.0466 z m 0.325967,1.13454 q 0.0127,0.1143 0.06773,0.19473 0.05927,0.0804 0.1397,0.13123 0.105833,0.008 0.2159,-0.008 0.1143,-0.0212 0.220133,-0.0677 0.105834,-0.0508 0.198967,-0.13123 0.09313,-0.0804 0.1651,-0.19473 0.05927,-0.1016 0.09737,-0.2286 0.0381,-0.127 0.0042,-0.24977 -0.05503,-0.0381 -0.127,-0.0677 -0.06773,-0.0296 -0.135467,-0.0466 -0.06773,-0.0212 -0.127,-0.0296 -0.05503,-0.0127 -0.08467,-0.0169 -0.148167,-0.0127 -0.275167,0.0466 -0.122767,0.055 -0.211667,0.16087 -0.08467,0.1016 -0.127,0.23706 -0.0381,0.13124 -0.02117,0.27094 z m 0.635,-0.8001 q 0.05503,-0.008 0.105833,0.004 0.05503,0.0127 0.105833,0.0381 0.05503,0.0212 0.105834,0.0466 0.05503,0.0212 0.105833,0.0381 0,0 0.0042,0.004 -0.08043,-0.13123 -0.232833,-0.1905 -0.1524,-0.0593 -0.3302,-0.055 -0.1778,0.0381 -0.334433,0.12276 -0.1524,0.0804 -0.232834,0.18627 -0.05927,0.0804 -0.0508,0.19897 0.0085,0.1143 0.0254,0.20743 -0.0042,-0.008 -0.0042,-0.0127 0,-0.004 0.0042,0 0,0.0169 0.0042,0.0254 0.0042,-0.0381 0.02117,-0.0931 0.04233,-0.1524 0.105834,-0.2413 0.0635,-0.0931 0.1524,-0.14817 0.0889,-0.055 0.198966,-0.0804 0.110067,-0.0296 0.245534,-0.0508 z m 0.448733,0.762 q -0.05503,0.13546 -0.169333,0.23706 0.0085,0.0296 0,0.0508 -0.04657,0.072 -0.156634,0.1397 0.127,-0.0381 0.237067,-0.11853 0.110067,-0.0847 0.1778,-0.19473 0.06773,-0.11007 0.08467,-0.2413 0.02117,-0.13124 -0.03387,-0.2667 l -0.0085,-0.0127 q -0.0042,0.11006 -0.0508,0.22013 -0.04657,0.10583 -0.08043,0.18627 z m -1.240367,-0.0466 q -0.02117,-0.0974 -0.04233,-0.23283 -0.01693,-0.13547 0.01693,-0.24554 -0.05927,0.10584 -0.09313,0.22437 -0.02117,0.0804 -0.0254,0.1397 0.0085,0.0212 0.0127,0.0423 0.0085,0.0212 0.02117,0.0423 0.06773,0.1397 0.1524,0.23706 -0.0127,-0.0508 -0.0254,-0.1016 -0.0085,-0.055 -0.01693,-0.10583 z m 1.524,-0.41063 0.0127,0.0254 q -0.0042,-0.17357 -0.02963,-0.33444 -0.0254,-0.1651 -0.09313,-0.30056 0.04233,0.1397 0.05927,0.28363 0.02117,0.1397 0.04233,0.28363 z m -0.867833,-0.4953 q 0.04233,-0.008 0.08043,-0.0127 0.04233,-0.004 0.08467,-0.004 l -0.0635,-0.0169 q -0.105833,-0.0212 -0.207433,0 -0.1016,0.0169 -0.194734,0.072 0.04657,-0.0169 0.143934,-0.0296 0.02963,-0.004 0.06773,-0.004 0.04233,-0.004 0.0889,-0.004 z m -0.728133,-0.19897 q 0.105833,-0.0254 0.2032,-0.0974 0.1016,-0.072 0.182033,-0.11853 l 0.0254,-0.0127 q -0.08467,0.0254 -0.1524,0.0635 -0.0254,0.0169 -0.07197,0.0339 -0.04233,0.0169 -0.08467,0.0423 -0.01693,0.0169 -0.03387,0.0212 -0.02117,0.0169 -0.0381,0.0339 -0.01693,0.0127 -0.02963,0.0339 z m 0.884766,1.68063 q -0.1143,0.008 -0.211666,0 -0.07197,0.008 -0.122767,-0.004 0.156633,0.0423 0.334433,0.004 z m 0.681567,-0.59266 q -0.0254,0.12276 -0.0889,0.22013 0.0085,-0.004 0.01693,-0.0212 0.02963,-0.0423 0.04657,-0.0804 0.01693,-0.0423 0.02963,-0.0847 0,-0.008 -0.0042,-0.0169 0,-0.008 0,-0.0169 z m -0.601133,0.4191 q -0.1143,0.055 -0.254,0.0804 0.148166,-0.008 0.254,-0.0804 z m 0.436033,-0.93557 0.0508,0.0381 -0.0889,-0.11007 z m -1.1684,-0.17357 q -0.0085,0.008 -0.01693,0.0127 -0.0085,0 -0.01693,0.008 l -0.0381,0.0423 z m 1.172633,0.0254 -0.0254,-0.0296 -0.0381,-0.0339 z m -1.265766,0.5842 q 0,-0.004 -0.0042,-0.004 0,-0.004 0,-0.008 0,0.008 0,0.0127 0.0042,0 0.0042,0.008 z" />
      <path
         id="path952"
         style="font-style:normal;font-variant:normal;font-weight:normal;font-stretch:normal;font-size:4.23333311px;font-family:'the unseen';-inkscape-font-specification:'the unseen';fill:#ffffff;stroke-width:0.26458332"
         d="m 13.018639,292.09782 q 0,-0.0466 0.0381,-0.0508 0.0381,-0.004 0.04657,0.0423 0,0.1016 0,0.2032 0,0.0974 0.0042,0.19474 0,-0.12277 0.0085,-0.24977 0.0127,-0.127 0.06773,-0.2286 v -0.004 q 0,0 0.0042,-0.004 l 0.08043,0.0212 q -0.0254,0.2032 -0.0254,0.39793 0.09313,-0.10583 0.220133,-0.18203 0.127,-0.0804 0.262467,-0.12277 0.1397,-0.0466 0.2794,-0.0466 0.1397,-0.004 0.262467,0.0423 0.127,0.0423 0.224366,0.14393 0.09737,0.0974 0.1524,0.25824 0.0254,0.0847 0.02963,0.17356 0.0042,0.0847 0.0042,0.16934 v 0.008 q -0.03387,0 -0.0508,-0.004 l -0.03387,0.004 q -0.0127,-0.11006 -0.0635,-0.22013 -0.0508,-0.11007 -0.127,-0.19897 -0.0762,-0.0889 -0.1778,-0.14816 -0.1016,-0.0593 -0.2159,-0.0677 -0.0762,-0.008 -0.148166,0.0339 -0.06773,0.0381 -0.131234,0.072 -0.05503,0.0254 -0.09737,0.0466 -0.0381,0.0169 -0.07197,0.0423 -0.03387,0.0212 -0.06773,0.0593 -0.02963,0.0339 -0.06773,0.0889 -0.143933,0.21167 -0.173566,0.4826 -0.0254,0.27094 -0.0127,0.57997 0.02117,0.14393 0.03387,0.28787 0.01693,0.14393 -0.0042,0.2921 v 0.008 0.004 h -0.0042 v 0.004 0.008 h -0.0042 q -0.0085,0.0212 -0.03387,0.0212 -0.02117,0.004 -0.03387,-0.0127 v 0.004 q -0.03387,0.0212 -0.05927,0.004 -0.0254,-0.0169 -0.0127,-0.0508 v -0.008 l -0.01693,0.0804 -0.0635,-0.0212 h -0.02117 v -0.004 q 0,-0.13124 0.0127,-0.2667 0.0127,-0.1397 0.03387,-0.2794 v -0.127 q -0.01693,-0.1778 -0.03387,-0.33444 -0.01693,-0.16086 0.0042,-0.35136 -0.0085,-0.2032 -0.0127,-0.39794 -0.0042,-0.19473 -0.0042,-0.39793 z m 0.249767,0.42757 q -0.0085,0.008 -0.01693,0.0212 -0.0042,0.0127 -0.0127,0.0212 v 0.18203 q 0.04657,-0.15663 0.122766,-0.23706 0.118534,-0.13547 0.262467,-0.2286 0.143933,-0.0974 0.2921,-0.12277 0.148167,-0.0254 0.2921,0.0339 0.148167,0.0593 0.275167,0.2286 l 0.0762,0.11006 q -0.0762,-0.22436 -0.245534,-0.30903 -0.169333,-0.0889 -0.364066,-0.072 -0.194734,0.0169 -0.381,0.11854 -0.186267,0.1016 -0.300567,0.254 z m -0.110067,1.17263 q 0,0.004 0,0.0169 0,0.008 0.0042,0.0296 0,-0.0212 -0.0042,-0.0381 0,-0.0212 0,-0.0423 0,0.004 -0.0042,0.008 0,0 0,0.008 0,0.004 0,0.008 0.0042,0.004 0.0042,0.008 z" />
      <path
         id="path954"
         style="font-style:normal;font-variant:normal;font-weight:normal;font-stretch:normal;font-size:4.23333311px;font-family:'the unseen';-inkscape-font-specification:'the unseen';fill:#ffffff;stroke-width:0.26458332"
         d="m 14.862454,292.46612 q 0.0508,0.008 0.1016,0.0169 0.05503,0.008 0.105834,0.0127 l 0.0085,-0.1143 q -0.0254,-0.008 -0.02963,-0.0254 -0.03387,-0.2794 -0.03387,-0.54186 0.0042,-0.26247 0.0042,-0.5461 0.01693,0 0.02963,0 0.0127,-0.004 0.02963,-0.004 0.0042,0 0.0085,0 0.0042,-0.004 0.0127,-0.004 h 0.0042 v 0.0127 q 0,0.11007 -0.0042,0.22013 0,0.11007 0,0.22014 l 0.0085,-0.23284 q 0.0127,-0.0339 0.04233,-0.0296 0.03387,0 0.04233,0.0381 l -0.0085,0.50377 q 0.0127,-0.0593 0.02117,-0.1524 0.0127,-0.0974 0.02117,-0.1651 0,-0.0381 0,-0.0762 0,-0.0381 -0.0042,-0.0762 l -0.0127,-0.0889 q -0.02117,-0.004 -0.02963,-0.0212 -0.0042,-0.0212 0.0127,-0.0466 l 0.0127,-0.008 q 0,-0.0169 0,-0.0339 0,-0.0169 0.0042,-0.0339 0.02117,0 0.0381,0 0.02117,-0.004 0.04233,-0.008 0.0254,0.0593 0.02963,0.1397 0.0042,0.0804 -0.0042,0.1778 0.0042,0.0296 0.0042,0.0593 0.0042,0.0254 0.0042,0.055 l -0.01693,0.55456 q 0.0042,0.0423 0.0042,0.072 0.0042,0.0254 0.0042,0.0508 0.0042,0.0212 0.0042,0.0508 0.0042,0.0254 0.0042,0.0677 0.0042,0 0.0042,0.004 0.0042,0 0.0085,0 l 0.05503,-0.0423 q 0.110066,-0.008 0.198966,-0.0169 0.09313,-0.008 0.1651,-0.0169 0.01693,-0.0169 0.04233,-0.0127 0.0085,0.004 0.01693,0.004 v 0.0169 l 0.0085,0.0508 q 0.08043,0.008 0.156633,0.0127 0.08043,0 0.160867,0.004 h 0.0042 l 0.0127,0.0847 h -0.01693 q -0.08467,0 -0.173567,0.0169 -0.08467,0.0127 -0.182033,0.0254 -0.09737,0.0127 -0.211667,0.0212 -0.110067,0.004 -0.249766,-0.0127 -0.0042,0.008 -0.0042,0.0296 0.1397,0.008 0.224367,0.008 0.0889,-0.004 0.1651,-0.008 0.0762,-0.004 0.160866,-0.008 0.0889,-0.004 0.2286,-0.004 0.01693,-0.0212 0.04233,-0.0169 l 0.05503,0.0212 -0.0254,0.0804 q -0.1524,0 -0.254,0.004 -0.09737,0.004 -0.186267,0.008 -0.08467,0.004 -0.186266,0.004 -0.09737,0 -0.249767,-0.008 l -0.0042,0.0169 q 0,0.11854 -0.0085,0.25824 -0.0042,0.1397 -0.0042,0.28363 0.0042,0.1397 0.02117,0.27517 0.02117,0.13123 0.0762,0.23283 0.03387,0.072 0.08467,0.127 0.07197,0.0339 0.173567,0.0593 0.1016,0.0254 0.207433,0.0339 0.160867,-0.0423 0.2921,-0.16933 0.135467,-0.127 0.1905,-0.3048 0.0085,-0.0381 0.0127,-0.0762 0.0042,-0.0381 0.01693,-0.0762 0,-0.004 0,-0.004 0.0042,-0.004 0.0042,-0.008 l 0.0254,0.008 q 0.01693,0 0.02963,0.004 0.0127,0 0.02963,0 0,0.0127 -0.0042,0.0254 0,0.0127 0,0.0254 0.0254,0.008 0.02963,0.0381 0,0.1143 -0.0042,0.24553 -0.0042,0.13124 -0.08043,0.2286 -0.0762,0.1016 -0.2032,0.15664 -0.122767,0.0508 -0.262467,0.0593 -0.135467,0.008 -0.270933,-0.0296 -0.135467,-0.0423 -0.2286,-0.13123 l -0.0762,-0.0466 q -0.03387,-0.0169 -0.0635,-0.0508 l -0.0127,-0.0127 q -0.04657,-0.0423 -0.0889,-0.0889 -0.0381,-0.0508 -0.0635,-0.0974 -0.0254,-0.0466 -0.0381,-0.13546 -0.0085,-0.0889 -0.0085,-0.19474 0,-0.11006 0.0042,-0.2286 0.0042,-0.11853 0,-0.2286 -0.0127,-0.11853 -0.0127,-0.2032 -0.05927,-0.004 -0.118534,-0.004 -0.05927,0 -0.118533,0 -0.0381,-0.008 -0.0381,-0.0381 0,-0.0339 0.0381,-0.0466 0.05927,0 0.118533,0 0.0635,0 0.122767,0.004 v -0.0508 q -0.169333,-0.0212 -0.254,-0.072 0.0042,-0.008 0.0042,-0.0127 0,-0.004 0.0042,-0.008 -0.0085,-0.0339 0.0127,-0.0508 v -0.004 h 0.0127 q 0.0085,-0.004 0.02117,0 h 0.0042 q 0.03387,0.008 0.04233,0.0296 0.03387,0.0127 0.07197,0.0212 0.04233,0.004 0.0889,0.0127 v -0.0339 l 0.09313,0.008 q -0.0042,0.0127 -0.0042,0.0381 h 0.04233 v -0.0381 q 0.03387,0.004 0.05927,0.004 0.02963,0 0.0635,0 v 0.0423 q 0.0508,0 0.04657,-0.0127 0,-0.0127 -0.0127,-0.0254 -0.0127,-0.0169 -0.01693,-0.0296 0,-0.0127 0.0508,-0.0127 l 0.4318,0.0254 0.0042,0.0127 h -0.0085 v 0.004 h -0.0127 q -0.0635,0.0127 -0.105833,0.0339 -0.0381,0.0212 -0.08467,0.0423 -0.04657,0.0212 -0.1143,0.0381 -0.0635,0.0127 -0.177799,0.008 v 0.0127 l -0.118534,-0.0169 v -0.004 h -0.0254 q -0.06773,-0.0127 -0.118533,-0.0339 l -0.01693,-0.0127 q -0.0508,-0.008 -0.1016,-0.0127 -0.04657,-0.008 -0.09313,-0.0169 -0.02963,-0.0127 -0.03387,-0.0296 l 0.0127,-0.0508 q 0.0042,0 0.0042,0 0.0042,-0.004 0.0085,-0.004 z m 0.287867,0.44027 q 0,0.0296 -0.0042,0.0762 0,0.0423 -0.0042,0.0931 0,0.0466 0,0.0931 0,0.0423 0.0085,0.072 0,-0.0381 0.0085,-0.0889 0.0085,-0.055 0.01693,-0.11007 0.0085,-0.0593 0.01693,-0.11006 0.0127,-0.0508 0.01693,-0.0889 -0.0042,-0.0212 -0.0042,-0.0423 0,-0.0254 0,-0.0466 h -0.05927 q 0,0.0339 0,0.072 0,0.0381 0.0042,0.0804 z m 0.07197,-0.69427 q -0.0042,0.0212 -0.0085,0.0254 -0.0042,0.004 -0.0085,0.004 -0.0042,0 -0.0085,0 0,0 0,0.0169 -0.0127,0.072 -0.02117,0.13123 -0.0042,0.055 -0.0127,0.1143 h 0.0381 q 0,-0.0466 0,-0.0762 0.0042,-0.0296 0.0042,-0.055 0.0042,-0.0296 0.0085,-0.0635 0.0042,-0.0381 0.0085,-0.0974 z m 0.982133,1.71873 q 0.0508,-0.0593 0.0762,-0.11853 -0.0762,0.1016 -0.156634,0.1778 0.0508,-0.0296 0.08043,-0.0593 z m -1.0541,-1.26153 h 0.05503 v -0.0381 q -0.0085,-0.004 -0.0254,-0.004 h -0.02963 z m 0.09737,1.05833 v 0.004 q -0.0127,-0.0423 -0.02117,-0.0762 -0.0042,-0.0381 -0.0127,-0.072 -0.0042,0.0127 -0.01693,0.0169 0.0085,0.0339 0.02117,0.0635 0.0127,0.0296 0.02963,0.0635 z m -0.07197,-0.27516 0.02117,0.0508 -0.0254,-0.15664 q 0,0.0254 0,0.0508 0,0.0254 0.0042,0.055 z m 1.1176,0.49953 0.02117,-0.0254 q 0.0508,-0.0677 0.0635,-0.16087 -0.0127,0.0466 -0.03387,0.0931 -0.01693,0.0466 -0.0508,0.0931 z" />
      <path
         id="path956"
         style="font-style:normal;font-variant:normal;font-weight:normal;font-stretch:normal;font-size:4.23333311px;font-family:'the unseen';-inkscape-font-specification:'the unseen';fill:#ffffff;stroke-width:0.26458332"
         d="m 18.766976,294.05785 q -0.0127,0.055 -0.05927,0.0381 -0.0042,0.0127 -0.0085,0.0254 -0.0042,0.008 -0.0085,0.0169 h -0.0085 q -0.0085,0.0339 -0.02117,0.0466 -0.04233,0 -0.0635,0.004 -0.03387,-0.0296 -0.0381,-0.0762 -0.0042,-0.0466 0.0042,-0.0974 0.0085,-0.0508 0.02117,-0.0974 0.0127,-0.0508 0.01693,-0.0847 l 0.0127,-0.13547 h -0.02963 q -0.0254,-0.2159 -0.0085,-0.4318 0.01693,-0.22013 0.01693,-0.43603 0,-0.20744 -0.02117,-0.41487 -0.01693,-0.21167 -0.0085,-0.4191 0.0042,-0.0847 0.0127,-0.18203 0.0085,-0.0974 0.0085,-0.19474 0.0042,-0.1016 -0.0085,-0.19473 -0.0127,-0.0931 -0.05503,-0.16933 -0.0127,-0.0381 0.01693,-0.055 0.02963,-0.0169 0.05503,0.008 0.04657,0.0889 0.0635,0.1905 0.01693,0.0974 0.0127,0.2032 0,0.1016 -0.0085,0.20743 -0.0085,0.1016 -0.0127,0.19474 -0.0042,0.0847 0,0.16933 0.0042,0.0847 0.0085,0.1651 0.0042,-0.0466 0.0042,-0.0931 0.0042,-0.0508 0.0042,-0.10584 0,-0.004 0.0085,-0.0127 0.01693,-0.37253 0.0254,-0.75353 l 0.04233,-0.0296 h 0.0042 q 0,-0.0339 0,-0.0677 0.0042,-0.0339 0.0042,-0.0677 0.01693,-0.0339 0.04657,-0.0296 0.02963,0 0.0381,0.0381 -0.0042,0.25823 -0.0127,0.51646 -0.0085,0.25824 -0.02117,0.51647 0.0254,-0.0296 0.0508,-0.0508 0.04657,-0.0339 0.09313,-0.0677 0.0508,-0.0339 0.09737,-0.0677 0.135467,-0.0931 0.3048,-0.072 0.169333,0.0169 0.3302,0.0974 0.05503,0.0212 0.105833,0.0466 0.05503,0.0212 0.110067,0.0466 0.0889,0.0381 0.186267,0.0889 0.1016,0.0508 0.160866,0.13546 0.06773,0.1016 0.0889,0.22014 0.0254,0.1143 0.0254,0.2413 0.0042,0.12276 -0.0085,0.24976 -0.0127,0.127 -0.02117,0.24554 0.0085,0.0804 0.0127,0.15663 0.0042,0.072 0.0085,0.13547 0.01693,0.10583 0.02117,0.22013 0.0042,0.11007 -0.04233,0.19473 l -0.0508,-0.0127 q -0.0085,0.0169 -0.0127,0.0339 0,0.0127 -0.0085,0.0254 -0.02963,0.0212 -0.05927,0.004 -0.02963,-0.0169 -0.0127,-0.055 0,-0.1905 0.02117,-0.3937 0.02117,-0.2032 0.02963,-0.4064 -0.02963,-0.22437 -0.0889,-0.44873 -0.05927,-0.22437 -0.1524,-0.35984 -0.04233,-0.0593 -0.09313,-0.11006 -0.0508,-0.0508 -0.110066,-0.0931 -0.09737,-0.0381 -0.198967,-0.0296 -0.1016,0.008 -0.198967,0.0508 -0.09313,0.0381 -0.1778,0.11007 -0.08467,0.0677 -0.143933,0.1524 -0.07197,0.1016 -0.09737,0.23283 -0.0254,0.127 -0.03387,0.26247 -0.0042,0.13123 0,0.26246 0.0085,0.13124 0.0085,0.24554 -0.0042,0.127 -0.0127,0.24976 -0.0085,0.12277 0,0.24977 l -0.0635,0.008 q -0.0085,0 -0.0127,0.004 -0.0042,0 -0.0085,0 v -0.004 q -0.02117,-0.0974 -0.04233,-0.19474 -0.02117,-0.0974 -0.04233,-0.19473 0,0.1143 -0.0127,0.20743 0.0085,0.0466 0.0085,0.0974 0.0042,0.0466 0.0085,0.0931 z m 0.778934,-1.9304 q -0.249767,-0.0466 -0.448734,0.0635 -0.198966,0.11007 -0.309033,0.35137 l -0.0254,0.5461 q 0.0127,0.1524 0.0381,0.3048 0.0254,0.1524 0.05503,0.28787 0,-0.0339 0,-0.0677 0,-0.0381 0.0042,-0.072 0,-0.0635 -0.0042,-0.14817 0,-0.0847 0,-0.17357 0,-0.0889 0,-0.1778 0.0042,-0.0889 0.0127,-0.16086 0.0127,-0.10584 0.0508,-0.2159 0.04233,-0.1143 0.105834,-0.21167 0.06773,-0.0974 0.156633,-0.16933 0.0889,-0.072 0.2032,-0.0974 0.03387,-0.008 0.08043,-0.0254 0.0508,-0.0169 0.09737,-0.0254 z m 0.626533,0.33444 q -0.02117,-0.0212 -0.0381,-0.0381 -0.01693,-0.0169 -0.0381,-0.0296 0.06773,0.0847 0.110067,0.1905 0.04233,0.1016 0.0635,0.22437 -0.0085,-0.10583 -0.02963,-0.19473 -0.02117,-0.0931 -0.06773,-0.1524 z" />
      <path
         id="path958"
         style="font-style:normal;font-variant:normal;font-weight:normal;font-stretch:normal;font-size:4.23333311px;font-family:'the unseen';-inkscape-font-specification:'the unseen';fill:#ffffff;stroke-width:0.26458332"
         d="m 22.291689,292.16979 q 0.02963,0.008 0.0381,0.0296 0.0085,0.0169 0,0.0339 0.02963,-0.008 0.04233,0.0254 0.01693,0.0296 -0.0127,0.0508 -0.0635,0.0381 -0.118533,0.0889 -0.05503,0.0466 -0.1016,0.10583 0.0381,0 0.02963,0.055 l -0.0085,0.0169 0.0042,-0.004 q 0.03387,-0.0212 0.05503,0.004 0.0254,0.0212 0.0085,0.055 l -0.1651,0.15663 q -0.07197,0.13124 -0.169334,0.27517 -0.09737,0.1397 -0.2032,0.2794 -0.105833,0.13547 -0.2159,0.2667 -0.110066,0.127 -0.2032,0.23707 0.211667,0.004 0.414867,-0.008 0.2032,-0.0169 0.4064,-0.0974 0.04233,-0.0169 0.08043,-0.055 0.04233,-0.0381 0.08043,-0.0762 0.04233,-0.0381 0.08467,-0.0635 0.04233,-0.0296 0.0889,-0.0254 0.0127,0.008 0.02117,0.0169 0.0127,0.004 0.02117,0.0127 0.0085,0.0169 0.0085,0.0296 0.0085,0.0423 -0.02963,0.055 -0.03387,0.008 -0.0508,-0.0254 -0.05927,0.0212 -0.1143,0.0847 -0.0508,0.0635 -0.1016,0.0974 -0.0381,0.0254 -0.0889,0.0423 -0.0508,0.0127 -0.09313,0.0296 -0.131234,0.0466 -0.270934,0.0593 -0.1397,0.0127 -0.2794,0.0127 0.1651,0.0381 0.334434,0.0212 0.1397,-0.0127 0.262466,-0.0508 0.127,-0.0423 0.2413,-0.12276 l 0.1778,-0.127 q 0.02117,-0.0296 0.0508,-0.0169 0.02963,0.0127 0.0254,0.0466 0.03387,-0.0169 0.05503,0.0169 0.02117,0.0296 -0.0127,0.055 -0.127,0.0974 -0.249767,0.1778 -0.122767,0.0804 -0.254,0.127 -0.04657,0.0339 -0.09313,0.0677 -0.04657,0.0296 -0.1016,0.0593 -0.1397,0.0677 -0.313267,0.0593 -0.169333,-0.004 -0.3302,-0.0635 -0.160867,-0.0593 -0.296333,-0.1651 -0.135467,-0.10583 -0.2032,-0.2413 l -0.02117,-0.0423 q -0.04233,0.0169 -0.05503,-0.0296 l -0.05503,-0.17357 q -0.0127,-0.0339 -0.02117,-0.0593 -0.0042,-0.0254 -0.0127,-0.0635 l -0.0085,-0.0339 q -0.0085,-0.0169 -0.0085,-0.0296 0,-0.0169 -0.0042,-0.0339 -0.0042,-0.0212 -0.0042,-0.0423 0,-0.0212 0,-0.0466 l -0.0085,-0.055 q -0.0127,-0.0889 0,-0.18203 0.01693,-0.0931 0.0635,-0.16933 0.04657,-0.0847 0.0889,-0.16934 0.04657,-0.0847 0.105834,-0.15663 0.118533,-0.13547 0.220133,-0.21167 0.105833,-0.0804 0.2032,-0.11853 0.1016,-0.0423 0.2032,-0.0508 0.105833,-0.008 0.220133,0 0.1143,0.004 0.245533,0.0212 0.135467,0.0127 0.296334,0.0169 0.02117,0.004 0.0381,0.0212 z m -1.490133,1.2065 q 0.0508,0.13546 0.143933,0.24976 0.0889,-0.0974 0.169333,-0.2032 0.08043,-0.10583 0.169333,-0.2032 0.1143,-0.127 0.2286,-0.24976 0.118534,-0.12277 0.2286,-0.24977 0.07197,-0.0804 0.135467,-0.1524 0.06773,-0.0762 0.143933,-0.14817 -0.0508,-0.0339 -0.1016,-0.0677 -0.04657,-0.0339 -0.105833,-0.055 -0.160867,-0.055 -0.3175,-0.0296 -0.156633,0.0212 -0.296333,0.1016 -0.1397,0.0762 -0.254,0.19897 -0.1143,0.12277 -0.186267,0.26247 -0.02117,0.072 -0.0254,0.14816 -0.0042,0.0762 0.0042,0.14817 0.0085,0.0635 0.0254,0.127 0.01693,0.0635 0.0381,0.12277 z m 0.829733,-0.19474 q -0.09737,0.13124 -0.1905,0.2667 -0.09313,0.13547 -0.1778,0.27517 0.143933,-0.16087 0.296333,-0.35137 0.1524,-0.1905 0.283633,-0.381 z m -0.618067,0.51647 q 0.0508,0.055 0.110067,0.0974 0.05927,-0.10584 0.122766,-0.2032 0.0635,-0.1016 0.131234,-0.19897 -0.05927,0.0466 -0.110067,0.0889 -0.0508,0.0423 -0.09737,0.0762 -0.04233,0.0339 -0.08043,0.072 -0.03387,0.0339 -0.0762,0.0677 z m 0.0889,0.21167 q 0,-0.008 0.0085,-0.0169 -0.0127,-0.004 -0.0127,-0.0212 -0.04657,-0.0254 -0.08467,-0.055 -0.0381,-0.0296 -0.07197,-0.0635 -0.0042,0 -0.0085,0.004 l -0.0508,-0.0635 q -0.08467,-0.0974 -0.143933,-0.21167 -0.05927,-0.11853 -0.08043,-0.25823 0,0.1905 0.08467,0.36406 0.0889,0.17357 0.2921,0.28364 z m 0.478367,-0.8001 0.09313,-0.127 q 0.04233,-0.055 0.08043,-0.1143 0.04233,-0.0635 0.0889,-0.127 -0.122766,0.13546 -0.249766,0.27093 -0.127,0.13123 -0.249767,0.2667 l -0.0889,0.1016 z m -0.1905,0.9779 q -0.07197,-0.0254 -0.1524,-0.0381 -0.0762,-0.0127 -0.148167,-0.0423 0.160867,0.10584 0.334433,0.1397 0.1778,0.0296 0.351367,-0.0212 -0.09313,0.008 -0.1778,-0.004 -0.04657,-0.008 -0.1016,-0.008 -0.05503,-0.004 -0.105833,-0.0254 z m 0.8001,-1.82457 q 0,-0.004 0,-0.004 0.0042,-0.004 0.0042,-0.008 -0.08043,-0.004 -0.160867,-0.008 -0.08043,-0.004 -0.1651,-0.0127 0.0508,0.0254 0.1016,0.0593 0.0508,0.0339 0.1143,0.0762 l 0.0127,-0.0127 q 0.01693,-0.0127 0.04657,-0.0381 0.03387,-0.0254 0.04657,-0.0508 z m -0.1905,0.4699 q 0.02117,-0.0339 0.0381,-0.072 0.01693,-0.0381 0.02963,-0.072 l -0.173567,0.2413 v 0.004 z m -0.817034,1.21073 q 0.07197,0.0339 0.135467,0.0508 0.06773,0.0169 0.1397,0.0296 -0.07197,-0.0127 -0.135467,-0.0381 -0.0635,-0.0254 -0.127,-0.0593 z m 1.083734,-1.6891 q 0,0.004 0,0.008 0.0042,0 0.0042,0.004 l 0.01693,-0.0127 z" />
      <path
         id="path960"
         style="font-style:normal;font-variant:normal;font-weight:normal;font-stretch:normal;font-size:4.23333311px;font-family:'the unseen';-inkscape-font-specification:'the unseen';fill:#ffffff;stroke-width:0.26458332"
         d="m 22.634589,292.09782 q 0,-0.0466 0.0381,-0.0508 0.0381,-0.004 0.04657,0.0423 0,0.1016 0,0.2032 0,0.0974 0.0042,0.19474 0,-0.12277 0.0085,-0.24977 0.0127,-0.127 0.06773,-0.2286 v -0.004 q 0,0 0.0042,-0.004 l 0.08043,0.0212 q -0.0254,0.2032 -0.0254,0.39793 0.09313,-0.10583 0.220133,-0.18203 0.127,-0.0804 0.262467,-0.12277 0.1397,-0.0466 0.2794,-0.0466 0.1397,-0.004 0.262466,0.0423 0.127,0.0423 0.224367,0.14393 0.09737,0.0974 0.1524,0.25824 0.0254,0.0847 0.02963,0.17356 0.0042,0.0847 0.0042,0.16934 v 0.008 q -0.03387,0 -0.0508,-0.004 l -0.03387,0.004 q -0.0127,-0.11006 -0.0635,-0.22013 -0.0508,-0.11007 -0.127,-0.19897 -0.0762,-0.0889 -0.1778,-0.14816 -0.1016,-0.0593 -0.2159,-0.0677 -0.0762,-0.008 -0.148167,0.0339 -0.06773,0.0381 -0.131233,0.072 -0.05503,0.0254 -0.09737,0.0466 -0.0381,0.0169 -0.07197,0.0423 -0.03387,0.0212 -0.06773,0.0593 -0.02963,0.0339 -0.06773,0.0889 -0.143933,0.21167 -0.173567,0.4826 -0.0254,0.27094 -0.0127,0.57997 0.02117,0.14393 0.03387,0.28787 0.01693,0.14393 -0.0042,0.2921 v 0.008 0.004 h -0.0042 v 0.004 0.008 h -0.0042 q -0.0085,0.0212 -0.03387,0.0212 -0.02117,0.004 -0.03387,-0.0127 v 0.004 q -0.03387,0.0212 -0.05927,0.004 -0.0254,-0.0169 -0.0127,-0.0508 v -0.008 l -0.01693,0.0804 -0.0635,-0.0212 h -0.02117 v -0.004 q 0,-0.13124 0.0127,-0.2667 0.0127,-0.1397 0.03387,-0.2794 v -0.127 q -0.01693,-0.1778 -0.03387,-0.33444 -0.01693,-0.16086 0.0042,-0.35136 -0.0085,-0.2032 -0.0127,-0.39794 -0.0042,-0.19473 -0.0042,-0.39793 z m 0.249767,0.42757 q -0.0085,0.008 -0.01693,0.0212 -0.0042,0.0127 -0.0127,0.0212 v 0.18203 q 0.04657,-0.15663 0.122767,-0.23706 0.118533,-0.13547 0.262467,-0.2286 0.143933,-0.0974 0.2921,-0.12277 0.148166,-0.0254 0.2921,0.0339 0.148166,0.0593 0.275166,0.2286 l 0.0762,0.11006 q -0.0762,-0.22436 -0.245533,-0.30903 -0.169333,-0.0889 -0.364067,-0.072 -0.194733,0.0169 -0.381,0.11854 -0.186266,0.1016 -0.300566,0.254 z m -0.110067,1.17263 q 0,0.004 0,0.0169 0,0.008 0.0042,0.0296 0,-0.0212 -0.0042,-0.0381 0,-0.0212 0,-0.0423 0,0.004 -0.0042,0.008 0,0 0,0.008 0,0.004 0,0.008 0.0042,0.004 0.0042,0.008 z" />
      <path
         id="path962"
         style="font-style:normal;font-variant:normal;font-weight:normal;font-stretch:normal;font-size:4.23333311px;font-family:'the unseen';-inkscape-font-specification:'the unseen';fill:#ffffff;stroke-width:0.26458332"
         d="m 26.25217,292.16979 q 0.02963,0.008 0.0381,0.0296 0.0085,0.0169 0,0.0339 0.02963,-0.008 0.04233,0.0254 0.01693,0.0296 -0.0127,0.0508 -0.0635,0.0381 -0.118534,0.0889 -0.05503,0.0466 -0.1016,0.10583 0.0381,0 0.02963,0.055 l -0.0085,0.0169 0.0042,-0.004 q 0.03387,-0.0212 0.05503,0.004 0.0254,0.0212 0.0085,0.055 l -0.1651,0.15663 q -0.07197,0.13124 -0.169333,0.27517 -0.09737,0.1397 -0.2032,0.2794 -0.105833,0.13547 -0.2159,0.2667 -0.110067,0.127 -0.2032,0.23707 0.211667,0.004 0.414867,-0.008 0.2032,-0.0169 0.4064,-0.0974 0.04233,-0.0169 0.08043,-0.055 0.04233,-0.0381 0.08043,-0.0762 0.04233,-0.0381 0.08467,-0.0635 0.04233,-0.0296 0.0889,-0.0254 0.0127,0.008 0.02117,0.0169 0.0127,0.004 0.02117,0.0127 0.0085,0.0169 0.0085,0.0296 0.0085,0.0423 -0.02963,0.055 -0.03387,0.008 -0.0508,-0.0254 -0.05927,0.0212 -0.1143,0.0847 -0.0508,0.0635 -0.1016,0.0974 -0.0381,0.0254 -0.0889,0.0423 -0.0508,0.0127 -0.09313,0.0296 -0.131233,0.0466 -0.270933,0.0593 -0.1397,0.0127 -0.2794,0.0127 0.1651,0.0381 0.334433,0.0212 0.1397,-0.0127 0.262467,-0.0508 0.127,-0.0423 0.2413,-0.12276 l 0.1778,-0.127 q 0.02117,-0.0296 0.0508,-0.0169 0.02963,0.0127 0.0254,0.0466 0.03387,-0.0169 0.05503,0.0169 0.02117,0.0296 -0.0127,0.055 -0.127,0.0974 -0.249766,0.1778 -0.122767,0.0804 -0.254,0.127 -0.04657,0.0339 -0.09313,0.0677 -0.04657,0.0296 -0.1016,0.0593 -0.1397,0.0677 -0.313266,0.0593 -0.169334,-0.004 -0.3302,-0.0635 -0.160867,-0.0593 -0.296334,-0.1651 -0.135466,-0.10583 -0.2032,-0.2413 l -0.02117,-0.0423 q -0.04233,0.0169 -0.05503,-0.0296 l -0.05503,-0.17357 q -0.0127,-0.0339 -0.02117,-0.0593 -0.0042,-0.0254 -0.0127,-0.0635 l -0.0085,-0.0339 q -0.0085,-0.0169 -0.0085,-0.0296 0,-0.0169 -0.0042,-0.0339 -0.0042,-0.0212 -0.0042,-0.0423 0,-0.0212 0,-0.0466 l -0.0085,-0.055 q -0.0127,-0.0889 0,-0.18203 0.01693,-0.0931 0.0635,-0.16933 0.04657,-0.0847 0.0889,-0.16934 0.04657,-0.0847 0.105833,-0.15663 0.118533,-0.13547 0.220133,-0.21167 0.105834,-0.0804 0.2032,-0.11853 0.1016,-0.0423 0.2032,-0.0508 0.105834,-0.008 0.220134,0 0.1143,0.004 0.245533,0.0212 0.135467,0.0127 0.296333,0.0169 0.02117,0.004 0.0381,0.0212 z m -1.490133,1.2065 q 0.0508,0.13546 0.143933,0.24976 0.0889,-0.0974 0.169334,-0.2032 0.08043,-0.10583 0.169333,-0.2032 0.1143,-0.127 0.2286,-0.24976 0.118533,-0.12277 0.2286,-0.24977 0.07197,-0.0804 0.135467,-0.1524 0.06773,-0.0762 0.143933,-0.14817 -0.0508,-0.0339 -0.1016,-0.0677 -0.04657,-0.0339 -0.105833,-0.055 -0.160867,-0.055 -0.3175,-0.0296 -0.156634,0.0212 -0.296334,0.1016 -0.1397,0.0762 -0.254,0.19897 -0.1143,0.12277 -0.186266,0.26247 -0.02117,0.072 -0.0254,0.14816 -0.0042,0.0762 0.0042,0.14817 0.0085,0.0635 0.0254,0.127 0.01693,0.0635 0.0381,0.12277 z m 0.829733,-0.19474 q -0.09737,0.13124 -0.1905,0.2667 -0.09313,0.13547 -0.1778,0.27517 0.143934,-0.16087 0.296334,-0.35137 0.1524,-0.1905 0.283633,-0.381 z m -0.618066,0.51647 q 0.0508,0.055 0.110066,0.0974 0.05927,-0.10584 0.122767,-0.2032 0.0635,-0.1016 0.131233,-0.19897 -0.05927,0.0466 -0.110066,0.0889 -0.0508,0.0423 -0.09737,0.0762 -0.04233,0.0339 -0.08043,0.072 -0.03387,0.0339 -0.0762,0.0677 z m 0.0889,0.21167 q 0,-0.008 0.0085,-0.0169 -0.0127,-0.004 -0.0127,-0.0212 -0.04657,-0.0254 -0.08467,-0.055 -0.0381,-0.0296 -0.07197,-0.0635 -0.0042,0 -0.0085,0.004 l -0.0508,-0.0635 q -0.08467,-0.0974 -0.143933,-0.21167 -0.05927,-0.11853 -0.08043,-0.25823 0,0.1905 0.08467,0.36406 0.0889,0.17357 0.2921,0.28364 z m 0.478366,-0.8001 0.09313,-0.127 q 0.04233,-0.055 0.08043,-0.1143 0.04233,-0.0635 0.0889,-0.127 -0.122767,0.13546 -0.249767,0.27093 -0.127,0.13123 -0.249766,0.2667 l -0.0889,0.1016 z m -0.1905,0.9779 q -0.07197,-0.0254 -0.1524,-0.0381 -0.0762,-0.0127 -0.148166,-0.0423 0.160866,0.10584 0.334433,0.1397 0.1778,0.0296 0.351367,-0.0212 -0.09313,0.008 -0.1778,-0.004 -0.04657,-0.008 -0.1016,-0.008 -0.05503,-0.004 -0.105834,-0.0254 z m 0.8001,-1.82457 q 0,-0.004 0,-0.004 0.0042,-0.004 0.0042,-0.008 -0.08043,-0.004 -0.160867,-0.008 -0.08043,-0.004 -0.1651,-0.0127 0.0508,0.0254 0.1016,0.0593 0.0508,0.0339 0.1143,0.0762 l 0.0127,-0.0127 q 0.01693,-0.0127 0.04657,-0.0381 0.03387,-0.0254 0.04657,-0.0508 z m -0.1905,0.4699 q 0.02117,-0.0339 0.0381,-0.072 0.01693,-0.0381 0.02963,-0.072 l -0.173567,0.2413 v 0.004 z m -0.817033,1.21073 q 0.07197,0.0339 0.135467,0.0508 0.06773,0.0169 0.1397,0.0296 -0.07197,-0.0127 -0.135467,-0.0381 -0.0635,-0.0254 -0.127,-0.0593 z m 1.083733,-1.6891 q 0,0.004 0,0.008 0.0042,0 0.0042,0.004 l 0.01693,-0.0127 z" />
    </g>
  </g>
</svg>
