<?xml version="1.0" encoding="UTF-8" standalone="no"?>
<!-- Created with Inkscape (http://www.inkscape.org/) -->

<svg
   xmlns:dc="http://purl.org/dc/elements/1.1/"
   xmlns:cc="http://creativecommons.org/ns#"
   xmlns:rdf="http://www.w3.org/1999/02/22-rdf-syntax-ns#"
   xmlns:svg="http://www.w3.org/2000/svg"
   xmlns="http://www.w3.org/2000/svg"
   xmlns:sodipodi="http://sodipodi.sourceforge.net/DTD/sodipodi-0.dtd"
   xmlns:inkscape="http://www.inkscape.org/namespaces/inkscape"
   width="256"
   height="256"
   viewBox="0 0 67.73333 67.733335"
   version="1.1"
   id="svg82"
   inkscape:version="0.92.3 (2405546, 2018-03-11)"
   sodipodi:docname="delirium_over.svg">
  <defs
     id="defs76" />
  <sodipodi:namedview
     id="base"
     pagecolor="#ffffff"
     bordercolor="#666666"
     borderopacity="1.0"
     inkscape:pageopacity="0.0"
     inkscape:pageshadow="2"
     inkscape:zoom="1.4"
     inkscape:cx="373.11677"
     inkscape:cy="96.428558"
     inkscape:document-units="mm"
     inkscape:current-layer="layer1"
     showgrid="false"
     units="px"
     inkscape:window-width="1920"
     inkscape:window-height="1017"
     inkscape:window-x="-8"
     inkscape:window-y="-8"
     inkscape:window-maximized="1" />
  <metadata
     id="metadata79">
    <rdf:RDF>
      <cc:Work
         rdf:about="">
        <dc:format>image/svg+xml</dc:format>
        <dc:type
           rdf:resource="http://purl.org/dc/dcmitype/StillImage" />
        <dc:title></dc:title>
      </cc:Work>
    </rdf:RDF>
  </metadata>
  <g
     inkscape:label="Layer 1"
     inkscape:groupmode="layer"
     id="layer1"
     transform="translate(0,-229.26665)">
    <g
       aria-label="Delirium
Over"
       style="font-style:normal;font-weight:normal;font-size:10.58333302px;line-height:1;font-family:sans-serif;letter-spacing:0px;word-spacing:0px;fill:#000000;fill-opacity:1;stroke:none;stroke-width:0.26458332"
       id="text86">
      <path
         d="m 3.6477205,247.22479 q 0.3686528,-0.0388 0.8731251,-0.23283 0.5044722,-0.19403 1.04775,-0.36865 0.5432778,-0.19403 1.0477501,-0.27164 0.523875,-0.097 0.9119306,0.097 0.3686528,0.19403 0.7761111,0.32985 0.4074584,0.11642 0.6985,0.42686 0.2716389,0.29104 0.5626806,0.54328 0.3104445,0.25223 0.523875,0.58208 0.659695,0.6597 1.125361,1.51342 0.465667,0.85372 0.679097,1.82386 0.155223,0.75671 0.116417,1.47461 -0.0388,0.7179 -0.252236,1.397 -0.0194,0.31044 -0.155222,0.62089 -0.0194,0.15522 -0.03881,0.31044 0,0.13582 -0.0388,0.29105 -0.13582,0.97013 -0.6985,1.66863 -0.562681,0.6791 -1.3775977,1.14477 -0.2910416,0.38805 -0.6402916,0.65969 -0.5820834,0.48507 -1.3970001,0.6791 -0.8149167,0.19403 -1.6492362,0.11642 -0.8343195,-0.0776 -1.6104306,-0.40746 -0.7567084,-0.34925 -1.2417778,-0.93133 l 0.1940277,-0.17463 0.077611,-0.11642 0.019403,0.0194 q 0.1164167,0.0776 0.2328334,0.15522 0.097014,0.0582 0.2134305,0.13582 0.1164167,0.0582 0.2134306,0.097 0.2328333,0.11642 0.523875,0.19403 0.2910417,0.0582 0.6014862,0.097 0.3298472,0.0388 0.6208889,0.0582 0.3104444,0 0.5626806,0 0.8343194,-0.0388 1.6104306,-0.27164 0.7955139,-0.25223 1.4746112,-0.6985 h 0.019403 q -0.6790972,0.38806 -1.4746111,0.48507 -0.7761112,0.0776 -1.5910279,0.0776 -0.2328333,0 -0.6208889,0 -0.3880556,0 -0.7955139,-0.0582 -0.4074584,-0.0582 -0.7567084,-0.19403 -0.3298472,-0.15522 -0.4268611,-0.44627 -0.038806,-0.21343 0.1164167,-0.25223 0.1552222,-0.0388 0.2522361,0.13582 0.097014,0.19402 0.4268611,0.29104 0.34925,0.097 0.8149167,0.13582 0.4656667,0.0388 1.0089445,0.0388 0.5626806,-0.0194 1.0671528,-0.0776 0.523875,-0.0582 0.9313334,-0.13582 0.4268611,-0.097 0.6596945,-0.19402 0.2910416,-0.15523 0.523875,-0.36866 0.2328333,-0.21343 0.4462639,-0.46566 0.019403,-0.0194 0.038806,-0.0194 0.019403,-0.0194 0.038806,-0.0582 0.097014,-0.17462 0.1746252,-0.34925 0.09701,-0.19402 0.194028,-0.36865 0.116416,-0.19403 0.271639,-0.36865 0.174625,-0.19403 0.329847,-0.38806 0.135819,-0.25223 0.232833,-0.48507 0.09701,-0.25223 0.194028,-0.50447 0.116417,-1.02835 -0.09701,-1.95968 -0.194028,-0.93133 -0.659694,-1.74625 -0.465667,-0.81492 -1.1641672,-1.49401 -0.6790973,-0.6791 -1.5522223,-1.20298 -0.4462639,-0.27163 -0.9895417,-0.42686 -0.5432778,-0.17462 -1.1059584,-0.21343 -0.5626806,-0.0582 -1.1253611,0.0388 -0.5626806,0.0776 -1.0283473,0.29104 l -0.097014,-0.21343 -0.1164167,-0.11642 q 0.038806,0 0.038806,-0.0194 0.019403,0 0.019403,0 0.019403,-0.0194 0.038806,-0.0194 -0.058208,-0.097 -0.038806,-0.17463 0.038806,-0.097 0.1940277,-0.13582 z m 6.1506809,1.397 q -1.843264,-1.84326 -3.9387641,-1.4358 1.1059584,0.0582 2.192514,0.67909 1.9402779,1.12537 2.8910137,2.89102 -0.368652,-1.06715 -1.0089442,-1.99849 -0.038806,-0.0388 -0.077611,-0.0582 -0.019403,-0.0388 -0.058208,-0.0776 z M 5.4909845,259.52615 H 4.9089012 q 0.3880555,0.11642 0.873125,0.15523 0.4850695,0.0194 0.9507361,-0.0388 0.4850695,-0.0582 0.9313334,-0.21343 0.4462639,-0.15522 0.7761112,-0.38805 -0.7373056,0.27163 -1.5134168,0.38805 -0.7567083,0.11642 -1.4358056,0.097 z m 4.6954725,-2.1343 q -0.0194,0.0194 -0.0194,0.0582 0.368653,-0.44627 0.620889,-0.87313 -0.155222,0.21343 -0.310444,0.40746 -0.13582,0.19403 -0.291042,0.40746 z M 7.3536513,246.81733 q -0.2716389,-0.11641 -0.6014862,-0.0776 0.1552222,0 0.2910417,0.0194 0.1552222,0.0194 0.3104445,0.0582 z m -4.1910002,-0.31044 q -0.038806,2.30893 -0.077611,4.59846 -0.038806,2.27012 0,4.57905 0.019403,0.98955 0.038806,1.97909 0.019403,0.97014 0.2716389,1.94028 0.097014,0 0.2910417,0.0388 v 0.0388 q -0.038806,0.0776 -0.038806,0.15522 0,0.0194 0,0.0388 0.019403,0.0194 0.019403,0.0582 l 0.3880556,-0.0388 q 0.058208,-0.42686 0.077611,-0.81492 0.019403,-0.38805 0,-0.77611 0,-0.38806 -0.019403,-0.81492 0,-0.42686 0,-0.93133 0,-2.03729 0.058208,-4.07458 v -0.21343 l 0.058208,-0.87313 0.097014,-1.74625 q 0,-0.15522 0.019403,-0.23283 0.058208,-0.62089 0.1164166,-1.26118 0.077611,-0.6403 0.038806,-1.26118 v -0.0388 l -0.1552222,0.0194 -0.2328334,-0.0194 q -0.097014,0.87313 -0.1358194,1.74625 -0.019403,0.85372 -0.077611,1.72685 -0.058208,1.28058 -0.174625,2.54176 -0.097014,1.26118 -0.1358195,2.54177 -0.019403,0.42686 -0.038806,0.85372 -0.019403,0.40746 -0.058208,0.81491 -0.019403,-0.34925 -0.019403,-0.6985 0,-0.34925 0,-0.7179 -0.038806,-2.28953 0,-4.55965 0.058208,-2.27013 0.077611,-4.55965 -0.038805,-0.17463 -0.174625,-0.17463 -0.1358194,-0.0194 -0.2134305,0.13582 z"
         style="font-style:normal;font-variant:normal;font-weight:normal;font-stretch:normal;font-size:19.40277863px;line-height:1;font-family:'the unseen';-inkscape-font-specification:'the unseen';text-align:center;text-anchor:middle;stroke-width:0.26458332"
         id="path98" />
      <path
         d="m 20.81918,250.7367 q 0.135819,0.0388 0.174625,0.13582 0.0388,0.0776 0,0.15522 0.135819,-0.0388 0.194027,0.11641 0.07761,0.13582 -0.05821,0.23284 -0.291042,0.17462 -0.543278,0.40746 -0.252236,0.21343 -0.465666,0.48507 0.174625,0 0.135819,0.25223 l -0.03881,0.0776 0.0194,-0.0194 q 0.155222,-0.097 0.252236,0.0194 0.116417,0.097 0.03881,0.25224 l -0.756708,0.7179 q -0.329848,0.60149 -0.776112,1.26118 -0.446263,0.64029 -0.931333,1.28059 -0.485069,0.62088 -0.989542,1.22237 -0.504472,0.58208 -0.931333,1.08656 0.970139,0.0194 1.901472,-0.0388 0.931334,-0.0776 1.862667,-0.44626 0.194028,-0.0776 0.368653,-0.25224 0.194028,-0.17462 0.368653,-0.34925 0.194027,-0.17462 0.388055,-0.29104 0.194028,-0.13582 0.407459,-0.11642 0.05821,0.0388 0.09701,0.0776 0.05821,0.0194 0.09701,0.0582 0.03881,0.0776 0.03881,0.13582 0.0388,0.19403 -0.13582,0.25224 -0.155222,0.0388 -0.232833,-0.11642 -0.271639,0.097 -0.523875,0.38806 -0.232833,0.29104 -0.465667,0.44626 -0.174625,0.11642 -0.407458,0.19403 -0.232833,0.0582 -0.426861,0.13582 -0.601486,0.21343 -1.241778,0.27164 -0.640292,0.0582 -1.280583,0.0582 0.756708,0.17463 1.532819,0.097 0.640292,-0.0582 1.202972,-0.23283 0.582084,-0.19403 1.105959,-0.56269 l 0.814917,-0.58208 q 0.09701,-0.13582 0.232833,-0.0776 0.135819,0.0582 0.116417,0.21343 0.155222,-0.0776 0.252236,0.0776 0.09701,0.13582 -0.05821,0.25224 -0.582083,0.44626 -1.144764,0.81491 -0.56268,0.36866 -1.164166,0.58209 -0.213431,0.15522 -0.426861,0.31044 -0.213431,0.13582 -0.465667,0.27164 -0.640292,0.31045 -1.435806,0.27164 -0.776111,-0.0194 -1.513416,-0.29104 -0.737306,-0.27164 -1.358195,-0.75671 -0.620889,-0.48507 -0.931333,-1.10596 l -0.09701,-0.19403 q -0.194028,0.0776 -0.252236,-0.13582 l -0.252236,-0.79551 q -0.05821,-0.15522 -0.09701,-0.27164 -0.0194,-0.11641 -0.05821,-0.29104 l -0.0388,-0.15522 q -0.03881,-0.0776 -0.03881,-0.13582 0,-0.0776 -0.0194,-0.15522 -0.0194,-0.097 -0.0194,-0.19403 0,-0.097 0,-0.21343 l -0.03881,-0.25224 q -0.05821,-0.40746 0,-0.83432 0.07761,-0.42686 0.291042,-0.77611 0.21343,-0.38805 0.407458,-0.77611 0.213431,-0.38806 0.48507,-0.7179 0.543277,-0.62089 1.008944,-0.97014 0.48507,-0.36865 0.931333,-0.54328 0.465667,-0.19403 0.931334,-0.23283 0.485069,-0.0388 1.008944,0 0.523875,0.0194 1.125361,0.097 0.620889,0.0582 1.358195,0.0776 0.09701,0.0194 0.174625,0.097 z m -6.829778,5.52979 q 0.232833,0.62089 0.659694,1.14476 0.407458,-0.44626 0.776111,-0.93133 0.368653,-0.48507 0.776111,-0.93134 0.523875,-0.58208 1.04775,-1.14476 0.543278,-0.56268 1.04775,-1.14476 0.329848,-0.36866 0.620889,-0.6985 0.310445,-0.34925 0.659695,-0.6791 -0.232834,-0.15522 -0.465667,-0.31044 -0.21343,-0.15523 -0.485069,-0.25224 -0.737306,-0.25224 -1.455209,-0.13582 -0.717903,0.097 -1.358194,0.46567 -0.640292,0.34925 -1.164167,0.91193 -0.523875,0.56268 -0.853722,1.20297 -0.09701,0.32985 -0.116417,0.6791 -0.0194,0.34925 0.0194,0.67909 0.0388,0.29105 0.116417,0.58209 0.07761,0.29104 0.174625,0.56268 z m 3.802944,-0.89253 q -0.446264,0.60149 -0.873125,1.22238 -0.426861,0.62088 -0.814917,1.26118 0.659695,-0.73731 1.358195,-1.61043 0.6985,-0.87313 1.299986,-1.74626 z m -2.832806,2.36714 q 0.232834,0.25224 0.504473,0.44626 0.271639,-0.48507 0.56268,-0.93133 0.291042,-0.46567 0.601486,-0.91193 -0.271638,0.21343 -0.504472,0.40746 -0.232833,0.19403 -0.446264,0.34925 -0.194027,0.15522 -0.368653,0.32984 -0.155222,0.15523 -0.34925,0.31045 z m 0.407459,0.97014 q 0,-0.0388 0.0388,-0.0776 -0.05821,-0.0194 -0.05821,-0.097 -0.213431,-0.11641 -0.388056,-0.25223 -0.174625,-0.13582 -0.329847,-0.29104 -0.0194,0 -0.0388,0.0194 l -0.232834,-0.29104 q -0.388055,-0.44627 -0.659694,-0.97014 -0.271639,-0.54328 -0.368653,-1.18357 0,0.87312 0.388056,1.66864 0.407458,0.79551 1.338791,1.29998 z m 2.192514,-3.66713 0.426861,-0.58208 q 0.194028,-0.25224 0.368653,-0.52388 0.194028,-0.29104 0.407458,-0.58208 -0.56268,0.62089 -1.144764,1.24178 -0.582083,0.60148 -1.144764,1.22237 l -0.407458,0.46567 z m -0.873125,4.48204 q -0.329847,-0.11641 -0.6985,-0.17462 -0.34925,-0.0582 -0.679098,-0.19403 0.737306,0.48507 1.53282,0.64029 0.814917,0.13582 1.610431,-0.097 -0.426861,0.0388 -0.814917,-0.0194 -0.213431,-0.0388 -0.465667,-0.0388 -0.252236,-0.0194 -0.485069,-0.11642 z m 3.667125,-8.36259 q 0,-0.0194 0,-0.0194 0.0194,-0.0194 0.0194,-0.0388 -0.368653,-0.0194 -0.737306,-0.0388 -0.368653,-0.0194 -0.756708,-0.0582 0.232833,0.11642 0.465666,0.27164 0.232834,0.15523 0.523875,0.34925 l 0.05821,-0.0582 q 0.07761,-0.0582 0.21343,-0.17463 0.155223,-0.11642 0.213431,-0.23283 z m -0.873125,2.15371 q 0.09701,-0.15523 0.174625,-0.32985 0.07761,-0.17463 0.135819,-0.32985 l -0.795514,1.10596 v 0.0194 z m -3.744736,5.54919 q 0.329847,0.15522 0.620889,0.23283 0.310444,0.0776 0.640291,0.13582 -0.329847,-0.0582 -0.620889,-0.17462 -0.291041,-0.11642 -0.582083,-0.27164 z m 4.967111,-7.74171 q 0,0.0194 0,0.0388 0.0194,0 0.0194,0.0194 l 0.07761,-0.0582 z"
         style="font-style:normal;font-variant:normal;font-weight:normal;font-stretch:normal;font-size:19.40277863px;line-height:1;font-family:'the unseen';-inkscape-font-specification:'the unseen';text-align:center;text-anchor:middle;stroke-width:0.26458332"
         id="path100" />
      <path
         d="m 23.031096,246.6039 q 0,-0.21343 0.174625,-0.23283 0.174625,-0.0194 0.213431,0.19403 l 0.05821,0.64029 q 0,-0.097 0,-0.17462 0.0194,-0.0776 0.03881,-0.17463 l 0.232833,0.0194 0.155222,-0.0194 v 0.0388 q 0.03881,0.62088 -0.0388,1.26118 -0.05821,0.64029 -0.116417,1.26118 -0.0194,0.0776 -0.0194,0.23283 l -0.09701,1.74625 -0.0194,0.13582 q 0.09701,1.28058 0.232833,2.54176 0.13582,1.26118 0.232833,2.54177 0.03881,0.48507 0.03881,0.95073 0,0.46567 0.0194,0.95074 0.135819,0.0388 0.155222,0.17463 -0.0194,0.13581 -0.03881,0.34925 0,0.21343 -0.09701,0.32984 -0.09701,-0.0388 -0.174625,-0.0582 -0.07761,-0.0194 -0.174625,-0.0388 -0.05821,-0.6597 -0.07761,-1.31939 0,-0.65969 -0.0388,-1.31939 -0.03881,-0.48507 -0.07761,-0.95074 -0.03881,-0.48507 -0.09701,-0.98954 v 1.86267 q 0,0.50447 0,0.93133 0.0194,0.42686 0.0194,0.81492 0.0194,0.38806 0,0.77611 -0.0194,0.38806 -0.07761,0.81492 l -0.388056,0.0388 q 0,-0.0388 -0.0194,-0.0582 0,-0.0194 0,-0.0388 0,-0.0776 0.03881,-0.15522 v -0.0388 q -0.194028,-0.0388 -0.291042,-0.0388 -0.252236,-0.97014 -0.271639,-1.94028 -0.0194,-0.98954 -0.03881,-1.97909 -0.03881,-2.30893 0,-4.57905 0.03881,-2.28953 0.07761,-4.59846 0.07761,-0.15522 0.21343,-0.13582 0.13582,0 0.174625,0.17463 -0.0194,2.28952 -0.07761,4.55965 -0.0388,2.27012 0,4.55965 0,0.36865 0,0.7179 0,0.34925 0.0194,0.6985 0.0388,-0.40745 0.05821,-0.81491 0.0194,-0.42686 0.03881,-0.85372 0.0388,-0.97014 0.09701,-1.92088 0.07761,-0.95074 0.135819,-1.92087 -0.0194,-0.19403 -0.0388,-0.36866 0,-0.19403 0,-0.38805 -0.03881,-1.04775 -0.03881,-2.0955 0,-1.06716 -0.116417,-2.11491 z"
         style="font-style:normal;font-variant:normal;font-weight:normal;font-stretch:normal;font-size:19.40277863px;line-height:1;font-family:'the unseen';-inkscape-font-specification:'the unseen';text-align:center;text-anchor:middle;stroke-width:0.26458332"
         id="path102" />
      <path
         d="m 25.630159,250.7949 q 0,-0.21343 0.174625,-0.23283 0.174625,-0.0194 0.213431,0.19403 0,0.29104 0.0194,0.58208 0.0388,0.29104 0.07761,0.58209 0.0388,-0.44627 0.07761,-0.87313 0.0388,-0.42686 0.135819,-0.85372 0.09701,0 0.194028,0.0194 0.09701,0 0.194028,0.0194 0.09701,1.43581 0.07761,2.87161 -0.0194,1.43581 -0.174625,2.87162 0.03881,0.97014 0.05821,1.94027 0.0194,0.95074 -0.05821,1.90148 v 0.0194 l -0.388056,-0.0388 v -0.17462 q 0.03881,-0.42686 0.03881,-0.85372 0,-0.44627 0,-0.89253 -0.03881,0.0776 -0.07761,0.27164 v 0.40746 q 0,0.29104 -0.07761,0.60148 -0.05821,0.29104 -0.213431,0.56268 l -0.34925,-0.17462 q 0,-0.32985 0.07761,-0.6985 0.07761,-0.38806 0.174625,-0.77611 0,-1.29999 0.0194,-2.58057 0.0194,-1.29999 -0.0388,-2.61938 -0.0194,-0.52387 -0.07761,-1.04775 -0.05821,-0.52387 -0.07761,-1.02835 z m 1.028348,-3.37608 q 0.155222,0.0388 0.194027,0.17463 0.05821,0.13582 -0.135819,0.21343 -0.310445,0.0582 -0.523875,0.19402 -0.213431,0.11642 -0.329847,0.27164 0.116416,-0.0776 0.252236,-0.13582 0.155222,-0.0582 0.310444,-0.097 0.09701,-0.0582 0.194028,-0.097 0.09701,-0.0388 0.232833,0 0.09701,0.0194 0.155223,0.0776 0.291041,0.0582 0.368652,0.27164 0.03881,0.15522 -0.05821,0.29104 -0.07761,0.13582 -0.252236,0.23283 -0.174625,0.097 -0.407458,0.17463 -0.213431,0.0582 -0.426862,0.0776 -0.21343,0.0388 -0.310444,0 -0.135819,0 -0.291042,-0.0776 -0.252236,-0.13582 -0.271639,-0.34925 0,-0.21343 0.09701,-0.42687 0.116417,-0.21343 0.291042,-0.38805 0.174625,-0.19403 0.310444,-0.27164 0.116417,-0.0776 0.329848,-0.097 0.232833,-0.0194 0.271639,-0.0388 z m -0.07761,1.00895 q -0.135819,0.11641 -0.252236,0.0388 -0.09701,0.0388 -0.155222,0.0776 -0.05821,0.0388 -0.116417,0.0776 0.174625,0 0.310445,-0.0194 0.135819,-0.0194 0.252236,-0.21343 z"
         style="font-style:normal;font-variant:normal;font-weight:normal;font-stretch:normal;font-size:19.40277863px;line-height:1;font-family:'the unseen';-inkscape-font-specification:'the unseen';text-align:center;text-anchor:middle;stroke-width:0.26458332"
         id="path104" />
      <path
         d="m 28.340485,250.40685 q 0,-0.21343 0.174625,-0.23283 0.174625,-0.0194 0.213431,0.19402 0,0.46567 0,0.93134 0,0.44626 0.0194,0.89252 0,-0.56268 0.03881,-1.14476 0.05821,-0.58208 0.310444,-1.04775 v -0.0194 q 0,0 0.0194,-0.0194 l 0.368653,0.097 q -0.116417,0.93133 -0.116417,1.82386 0.426861,-0.48507 1.008945,-0.83432 0.582083,-0.36865 1.202972,-0.56268 0.640292,-0.21343 1.280583,-0.21343 0.640292,-0.0194 1.202973,0.19403 0.582083,0.19402 1.028347,0.65969 0.446264,0.44627 0.6985,1.18357 0.116417,0.38806 0.135819,0.79551 0.0194,0.38806 0.0194,0.77612 v 0.0388 q -0.155222,0 -0.232833,-0.0194 l -0.155222,0.0194 q -0.05821,-0.50447 -0.291042,-1.00894 -0.232833,-0.50448 -0.582083,-0.91193 -0.34925,-0.40746 -0.814917,-0.6791 -0.465667,-0.27164 -0.989542,-0.31045 -0.34925,-0.0388 -0.679097,0.15523 -0.310444,0.17462 -0.601486,0.32984 -0.252236,0.11642 -0.446264,0.21343 -0.174625,0.0776 -0.329847,0.19403 -0.155223,0.097 -0.310445,0.27164 -0.135819,0.15522 -0.310444,0.40746 -0.659695,0.97014 -0.795514,2.21192 -0.116417,1.24177 -0.05821,2.65818 0.09701,0.65969 0.155222,1.31939 0.07761,0.65969 -0.0194,1.33879 v 0.0388 0.0194 h -0.0194 v 0.0194 0.0388 h -0.0194 q -0.0388,0.097 -0.155222,0.097 -0.09701,0.0194 -0.155222,-0.0582 v 0.0194 q -0.155222,0.097 -0.271639,0.0194 -0.116417,-0.0776 -0.05821,-0.23284 v -0.0388 l -0.07761,0.36865 -0.291042,-0.097 h -0.09701 v -0.0194 q 0,-0.60148 0.05821,-1.22237 0.05821,-0.64029 0.155223,-1.28059 v -0.58208 q -0.07761,-0.81492 -0.155223,-1.53282 -0.07761,-0.7373 0.0194,-1.61043 -0.0388,-0.93133 -0.05821,-1.82386 -0.0194,-0.89253 -0.0194,-1.82386 z m 1.144764,1.95968 q -0.03881,0.0388 -0.07761,0.097 -0.0194,0.0582 -0.05821,0.097 v 0.83432 q 0.21343,-0.71791 0.56268,-1.08656 0.543278,-0.62089 1.202972,-1.04775 0.659695,-0.44626 1.338792,-0.56268 0.679097,-0.11642 1.338792,0.15522 0.679097,0.27164 1.26118,1.04775 l 0.34925,0.50447 q -0.34925,-1.02834 -1.125361,-1.4164 -0.776111,-0.40746 -1.668639,-0.32985 -0.892527,0.0776 -1.74625,0.54328 -0.853722,0.46567 -1.377597,1.16417 z m -0.504472,5.37457 q 0,0.0194 0,0.0776 0,0.0388 0.0194,0.13582 0,-0.097 -0.0194,-0.17463 0,-0.097 0,-0.19402 0,0.0194 -0.0194,0.0388 0,0 0,0.0388 0,0.0194 0,0.0388 0.0194,0.0194 0.0194,0.0388 z"
         style="font-style:normal;font-variant:normal;font-weight:normal;font-stretch:normal;font-size:19.40277863px;line-height:1;font-family:'the unseen';-inkscape-font-specification:'the unseen';text-align:center;text-anchor:middle;stroke-width:0.26458332"
         id="path106" />
      <path
         d="m 37.567417,250.7949 q 0,-0.21343 0.174625,-0.23283 0.174625,-0.0194 0.213431,0.19403 0,0.29104 0.0194,0.58208 0.03881,0.29104 0.07761,0.58209 0.03881,-0.44627 0.07761,-0.87313 0.03881,-0.42686 0.135819,-0.85372 0.09701,0 0.194028,0.0194 0.09701,0 0.194028,0.0194 0.09701,1.43581 0.07761,2.87161 -0.0194,1.43581 -0.174625,2.87162 0.03881,0.97014 0.05821,1.94027 0.0194,0.95074 -0.05821,1.90148 v 0.0194 l -0.388056,-0.0388 v -0.17462 q 0.03881,-0.42686 0.03881,-0.85372 0,-0.44627 0,-0.89253 -0.03881,0.0776 -0.07761,0.27164 v 0.40746 q 0,0.29104 -0.07761,0.60148 -0.05821,0.29104 -0.213431,0.56268 l -0.34925,-0.17462 q 0,-0.32985 0.07761,-0.6985 0.07761,-0.38806 0.174625,-0.77611 0,-1.29999 0.0194,-2.58057 0.0194,-1.29999 -0.03881,-2.61938 -0.0194,-0.52387 -0.07761,-1.04775 -0.05821,-0.52387 -0.07761,-1.02835 z m 1.028347,-3.37608 q 0.155223,0.0388 0.194028,0.17463 0.05821,0.13582 -0.135819,0.21343 -0.310445,0.0582 -0.523875,0.19402 -0.213431,0.11642 -0.329848,0.27164 0.116417,-0.0776 0.252237,-0.13582 0.155222,-0.0582 0.310444,-0.097 0.09701,-0.0582 0.194028,-0.097 0.09701,-0.0388 0.232833,0 0.09701,0.0194 0.155222,0.0776 0.291042,0.0582 0.368653,0.27164 0.03881,0.15522 -0.05821,0.29104 -0.07761,0.13582 -0.252236,0.23283 -0.174625,0.097 -0.407459,0.17463 -0.21343,0.0582 -0.426861,0.0776 -0.21343,0.0388 -0.310444,0 -0.13582,0 -0.291042,-0.0776 -0.252236,-0.13582 -0.271639,-0.34925 0,-0.21343 0.09701,-0.42687 0.116417,-0.21343 0.291042,-0.38805 0.174625,-0.19403 0.310444,-0.27164 0.116417,-0.0776 0.329847,-0.097 0.232834,-0.0194 0.271639,-0.0388 z m -0.07761,1.00895 q -0.135819,0.11641 -0.252236,0.0388 -0.09701,0.0388 -0.155222,0.0776 -0.05821,0.0388 -0.116417,0.0776 0.174625,0 0.310445,-0.0194 0.135819,-0.0194 0.252236,-0.21343 z"
         style="font-style:normal;font-variant:normal;font-weight:normal;font-stretch:normal;font-size:19.40277863px;line-height:1;font-family:'the unseen';-inkscape-font-specification:'the unseen';text-align:center;text-anchor:middle;stroke-width:0.26458332"
         id="path108" />
      <path
         d="m 44.798588,259.64257 q 0.0194,0 0.0194,0.0194 0.0194,0 0.03881,0 l 0.116416,-0.0582 q 0.329848,-0.29105 0.737306,-0.58209 0.426861,-0.29104 0.853722,-0.60148 0.426861,-0.32985 0.83432,-0.6597 0.407458,-0.34925 0.6985,-0.75671 l 0.116416,-0.44626 q -0.0388,-0.34925 -0.05821,-0.6985 -0.0194,-0.34925 -0.0194,-0.6985 0,-1.18357 0.05821,-2.38654 -0.07761,-0.58209 -0.07761,-1.20297 0,-0.62089 0.155223,-1.02835 v -0.11642 q 0.0194,-0.097 0.07761,-0.13582 0.05821,-0.0388 0.116416,-0.0388 0.155223,-0.15523 0.329848,-0.17463 0.155222,0.0582 0.174625,0.17463 0.0194,0.11641 -0.09701,0.19402 l 0.155222,0.0194 0.155222,-0.0194 q 0.0194,0.097 0.0194,0.19403 0,0.0776 0,0.17463 l 0.05821,-0.0194 0.291042,0.0776 q 0.116417,0.29104 0.116417,0.67909 0,0.36866 -0.05821,0.79552 -0.05821,0.40745 -0.174625,0.83432 -0.09701,0.42686 -0.21343,0.83432 0,0.11641 0,0.25223 0,0.11642 -0.0194,0.25224 v 0.93133 q 0.07761,0.73731 0.09701,1.43581 0.03881,0.67909 0.07761,1.4164 0.0194,0.38806 0.0194,0.87312 0.0194,0.48507 0.174625,0.85373 0.05821,0.21343 -0.09701,0.27164 -0.155222,0.0582 -0.252236,-0.11642 -0.09701,-0.21343 -0.155222,-0.52388 -0.05821,-0.32984 -0.09701,-0.6985 -0.0194,-0.36865 -0.03881,-0.7567 0,-0.38806 0,-0.73731 -0.07761,0.60149 -0.135819,1.20297 -0.03881,0.58209 -0.05821,1.20297 0,0 -0.0194,0.0388 -0.05821,0.13582 -0.174625,0.097 h -0.05821 q -0.116416,-0.0388 -0.135819,-0.17462 v -0.0582 q -0.03881,-0.32985 -0.05821,-0.62089 -0.0194,-0.31044 -0.0194,-0.64029 -0.34925,0.44626 -0.873125,0.73731 -0.523875,0.29104 -1.299987,0.54327 -0.620888,0.21343 -1.04775,0.31045 -0.407458,0.097 -0.853722,0 -0.504472,0.0388 -0.873125,-0.13582 -0.368653,-0.17463 -0.640292,-0.48507 -0.931333,-0.40746 -1.494014,-1.08656 -0.543277,-0.67909 -0.795513,-1.55222 -0.232834,-0.87312 -0.252237,-1.92087 0,-1.04775 0.155223,-2.21192 0.0194,-0.19403 0.0194,-0.46567 0,-0.29104 0,-0.58208 0.0194,-0.31045 0.03881,-0.56268 0.03881,-0.27164 0.116417,-0.44627 0.07761,-0.0194 0.135819,-0.0388 0.05821,-0.0194 0.13582,-0.0582 l -0.155223,0.097 q 0.09701,0.13582 0.213431,0.23284 0.116417,0.0776 0,0.097 -0.07761,0.38806 -0.07761,0.91193 0,0.50447 -0.03881,0.85372 -0.116416,0.97014 -0.155222,1.88207 -0.0194,0.89253 0.116417,1.68805 0.155222,0.77611 0.523875,1.4164 0.388055,0.64029 1.067153,1.08655 l -0.155223,-0.34925 q -0.620889,-0.97013 -0.873125,-2.1343 -0.252236,-1.18357 -0.252236,-2.28953 0,-0.17462 0.0194,-0.46567 0.0194,-0.29104 0.0388,-0.64029 0.03881,-0.36865 0.07761,-0.7373 0.05821,-0.36866 0.116416,-0.6791 l -0.03881,-0.44626 -0.05821,-0.11642 q 0,-0.17463 0.0194,-0.27164 l 0.368653,-0.0776 q 0.03881,0.0388 0.03881,0.097 0.09701,-0.0388 0.155223,0 l 0.0388,-0.11641 0.310445,-0.0776 0.09701,0.0582 q 0.09701,0.11642 0.0388,0.21343 -0.0388,0.097 -0.135819,0.11642 -0.13582,0.46567 -0.155222,0.98954 -0.0194,0.52388 -0.05821,1.00895 l -0.07761,1.08655 v 0.0388 q 0,0.27164 0.0194,0.6791 0.03881,0.38805 0.09701,0.85372 0.05821,0.46566 0.135819,0.97014 0.07761,0.48507 0.194028,0.95073 0.135819,0.32985 0.310444,0.6597 0.174625,0.32984 0.407459,0.64029 0.07761,0.097 0.135819,0.17462 0.05821,0.0776 0.13582,0.15523 0.116416,0.097 0.232833,0.17462 0.116417,0.0582 0.232833,0.13582 0.562681,0.15522 1.144764,0.21343 z m 2.968625,-1.82386 q -0.446263,0.44626 -0.950736,0.83432 -0.504472,0.36865 -1.008944,0.75671 0.679097,-0.19403 1.144764,-0.54328 0.465666,-0.34925 0.814916,-1.04775 z m 1.028348,-7.35365 q -0.07761,0.0194 -0.13582,0.13582 0,0.52387 -0.0194,1.04775 -0.0194,0.50447 -0.05821,1.00894 0.0194,0.21343 0.03881,0.40746 0.0194,0.17462 0.0388,0.31044 l 0.13582,0.58209 q -0.03881,-0.87313 -0.05821,-1.76566 0,-0.89252 0.05821,-1.70744 z m -0.659695,7.43126 q -0.09701,0.15522 -0.174625,0.29104 -0.05821,0.13582 -0.155222,0.27164 0.194028,-0.15522 0.34925,-0.38805 l 0.116417,-0.17463 q 0,-0.0582 -0.0194,-0.11642 0,-0.0582 0,-0.11641 z m 0.446264,-2.98803 -0.05821,-0.29104 v 0.56268 z m 0.640292,-3.68652 q 0.0194,0.11641 0.0194,0.23283 0,0.11642 0,0.21343 0.0194,-0.11642 0.0194,-0.23283 0,-0.11642 0,-0.23284 0,0.0194 -0.0194,0.0194 z"
         style="font-style:normal;font-variant:normal;font-weight:normal;font-stretch:normal;font-size:19.40277863px;line-height:1;font-family:'the unseen';-inkscape-font-specification:'the unseen';text-align:center;text-anchor:middle;stroke-width:0.26458332"
         id="path110" />
      <path
         d="m 50.670355,250.29043 q -0.09701,-0.15522 -0.03881,-0.25223 0.07761,-0.097 0.232834,-0.0582 0.135819,-0.0776 0.252236,0.0388 0.252236,0.48507 0.329847,1.02835 0.07761,0.54328 0.13582,1.06715 0,0.0388 0,0.097 0.0194,0.0388 0.0194,0.0776 0,0 0.0194,-0.0388 0.368653,-1.16416 1.18357,-1.70744 0.814916,-0.54328 1.804458,-0.32985 0.388056,-0.0388 0.814917,0.097 0.446264,0.13582 0.892528,0.48507 0.155222,0.11642 0.271638,0.29105 0.13582,0.15522 0.232834,0.36865 0.310444,0.17462 0.543278,0.46567 0.232833,0.29104 0.388055,0.7373 0.09701,-0.19403 0.213431,-0.36865 0.116416,-0.19403 0.271639,-0.38806 0.426861,-0.7179 1.067153,-1.22237 0.659694,-0.50447 1.494013,-0.60149 0.368653,-0.0388 0.717903,0.0388 0.34925,0.0582 0.679098,0.13582 0.310444,0.0582 0.582083,0.097 0.271639,0.0388 0.504472,0.13582 0.252236,0.0776 0.446264,0.25224 0.213431,0.15522 0.407458,0.44626 0.465667,0.6985 0.640292,1.49401 0.194028,0.77611 0.213431,1.59103 0.0194,0.81492 -0.05821,1.64924 -0.05821,0.81491 -0.09701,1.61043 -0.0388,0.62089 -0.0194,1.29998 0.0194,0.6791 -0.155223,1.28059 -0.09701,-0.0194 -0.194027,-0.0388 -0.09701,0 -0.194028,0 v -0.11641 q 0,-0.0776 0.0388,-0.15523 0.07761,-0.34925 0.09701,-0.7179 0.0194,-0.36865 0.0194,-0.75671 -0.07761,0.46567 -0.194028,0.91193 -0.09701,0.44627 -0.232833,0.83432 l -0.09701,-0.0388 q -0.07761,-0.0194 -0.155222,-0.0388 -0.05821,-0.0194 -0.116417,-0.0194 v -0.0194 q 0.194028,-0.93134 0.232833,-2.19252 0.05821,-1.26118 0.0194,-2.42535 -0.09701,-0.27163 -0.21343,-0.52387 -0.116417,-0.25224 -0.194028,-0.52388 -0.116417,-0.38805 -0.174625,-0.64029 -0.03881,-0.25223 -0.09701,-0.44626 -0.05821,-0.19403 -0.155222,-0.36865 -0.07761,-0.17463 -0.271639,-0.44627 -0.504472,-0.6985 -1.377597,-0.98954 -0.853723,-0.31044 -1.688042,-0.097 -0.252236,0.23283 -0.426861,0.52387 -0.155223,0.27164 -0.291042,0.60149 -0.271639,0.64029 -0.407458,1.62983 -0.13582,0.98954 -0.174625,2.0567 -0.03881,1.04775 0,2.05669 0.0388,0.98954 0.135819,1.66864 -0.0388,0.17462 -0.194028,0.17462 -0.135819,0.0194 -0.194027,-0.13582 l -0.03881,-0.29104 q -0.03881,0.17463 -0.116417,0.31045 -0.07761,0.13582 -0.194027,0.19403 -0.13582,0.0388 -0.232834,-0.0388 -0.07761,-0.0582 -0.05821,-0.15522 l -0.232833,-0.17463 v -0.0388 q -0.03881,-0.0194 -0.07761,-0.11642 -0.03881,-1.02835 -0.07761,-2.05669 -0.0194,-1.04775 0.03881,-2.0955 -0.03881,-0.6791 -0.116417,-1.28059 -0.07761,-0.62089 -0.194028,-1.12536 -0.0194,-0.0776 -0.09701,-0.23283 -0.174626,-0.32985 -0.368653,-0.6597 -0.194028,-0.32984 -0.446264,-0.62089 -0.465667,-0.11641 -0.989542,-0.0388 -0.523875,0.0582 -1.008944,0.27164 -0.48507,0.19403 -0.892528,0.52387 -0.388056,0.31045 -0.620889,0.71791 -0.09701,0.17462 -0.174625,0.34925 -0.07761,0.17462 -0.155222,0.36865 l -0.232834,1.45521 q 0.0194,0.38805 0.0194,0.79551 0.0194,0.40746 -0.0194,0.79551 l 0.116417,0.93134 q 0.03881,0.44626 0.05821,0.98954 0.03881,0.54328 0.13582,1.02835 l -0.0194,-0.0582 q 0.03881,0.21343 -0.135819,0.25223 -0.174625,0.0194 -0.232834,-0.15522 -0.0388,-0.11641 -0.0388,-0.17462 -0.0194,0.0582 -0.0194,0.19403 -0.07761,0 -0.271639,-0.0388 v 0.0582 l -0.213431,0.19403 q -0.155222,-0.0582 -0.174625,-0.15523 -0.0194,-0.0388 0.0194,-0.11641 l 0.07761,-0.58209 q -0.07761,-0.0194 -0.21343,-0.0194 -0.03881,-0.65969 -0.03881,-1.29999 0.0194,-0.65969 -0.0194,-1.31938 -0.0194,-0.40746 -0.03881,-0.81492 0,-0.42686 -0.03881,-0.83432 -0.09701,1.16417 -0.194028,2.34774 -0.07761,1.16416 -0.116416,2.34773 0.116416,0 0.155222,0.17463 -0.0194,0.0776 -0.03881,0.13582 -0.0194,0.0582 -0.05821,0.13582 -0.194028,0 -0.291042,0.0194 -0.174625,-0.11642 -0.21343,-0.48507 -0.03881,-0.36865 0,-0.77611 0.0194,-0.42686 0.07761,-0.79552 0.05821,-0.38805 0.05821,-0.52387 0.116417,-1.61043 0.271639,-3.18206 0.174625,-1.57162 0.213431,-3.16265 v -0.38806 l 0.155222,0.0388 q -0.05821,-0.32985 -0.174625,-0.40746 z m 13.620751,5.04472 q 0.09701,0.29105 0.135819,0.60149 0.03881,0.29104 0.07761,0.60149 0.05821,-0.6597 0.09701,-1.31939 0.03881,-0.6791 -0.0194,-1.31939 -0.03881,-0.6597 -0.21343,-1.28058 -0.174625,-0.6403 -0.543278,-1.20298 -0.310445,-0.46566 -0.679097,-0.56268 -0.34925,-0.11641 -0.795514,-0.17462 0.601486,0.23283 0.970139,0.6985 0.388055,0.46566 0.582083,1.06715 0.194028,0.58208 0.252236,1.29999 0.07761,0.6985 0.07761,1.4358 z m -1.901473,-4.28801 q -0.34925,-0.17462 -0.776111,-0.21343 -0.407458,-0.0388 -0.814917,0 0.6985,0.13582 1.319389,0.50447 0.620889,0.34925 0.950737,0.79552 0.271638,0.40745 0.426861,0.89252 0.155222,0.46567 0.271639,0.93134 0,-0.0582 -0.0194,-0.11642 0,-0.0776 0,-0.13582 -0.03881,-0.34925 -0.13582,-0.7373 -0.07761,-0.40746 -0.232833,-0.77612 -0.155222,-0.36865 -0.407458,-0.65969 -0.232834,-0.31044 -0.582084,-0.48507 z m -6.771569,0.097 q -0.446264,-0.40745 -0.950737,-0.54327 -0.640291,0.097 -1.202972,0.54327 -0.56268,0.44627 -0.873125,0.95074 l -0.05821,0.097 0.271639,-0.32984 q 0.194027,-0.23284 0.504472,-0.38806 0.310444,-0.15522 0.620889,-0.19403 0.426861,-0.0776 0.853722,-0.11641 0.426861,-0.0388 0.83432,-0.0194 z m 3.026833,1.04775 q -0.291042,0.46567 -0.426861,0.98955 -0.13582,0.52387 -0.174625,1.06715 -0.03881,0.54328 -0.0194,1.10596 0.0194,0.54327 0.05821,1.08655 v -0.13582 q 0,-0.81491 0.03881,-1.62983 0.03881,-0.81492 0.232833,-1.61043 0.116417,-0.42686 0.291042,-0.87313 z m -1.552222,0.0388 q 0.05821,0.19403 0.09701,0.38806 0.0388,0.17462 0.07761,0.34925 l 0.116416,0.27163 0.07761,0.23284 0.05821,-0.21343 q -0.07761,-0.36866 -0.232833,-0.73731 -0.03881,-0.0776 -0.09701,-0.15522 -0.03881,-0.0776 -0.09701,-0.13582 z m -5.122334,0.23283 q 0.07761,-0.17462 0.155222,-0.32984 0.07761,-0.15523 0.174625,-0.29105 0.252237,-0.32984 0.523875,-0.62088 0.271639,-0.31045 0.601487,-0.52388 -0.48507,0.21343 -0.853723,0.64029 -0.368652,0.42686 -0.56268,1.02835 z m 5.704417,7.23724 q 0.05821,-0.097 0.09701,-0.34925 -0.0194,0 -0.0194,-0.0388 -0.03881,0 -0.05821,-0.0194 0,0.0388 0,0.0582 0.0194,0.0194 0.0194,0.0388 z"
         style="font-style:normal;font-variant:normal;font-weight:normal;font-stretch:normal;font-size:19.40277863px;line-height:1;font-family:'the unseen';-inkscape-font-specification:'the unseen';text-align:center;text-anchor:middle;stroke-width:0.26458332"
         id="path112" />
      <path
         d="m 20.340628,279.33639 q -0.194028,-0.0388 -0.620889,-0.097 -0.426861,-0.0776 -0.931333,-0.19403 -0.659694,0.097 -1.319389,0.0194 -0.640292,-0.097 -1.164167,-0.52387 -0.776111,-0.60149 -1.280583,-1.31939 -0.48507,-0.7179 -0.756708,-1.51342 -0.252237,-0.81491 -0.310445,-1.68804 -0.05821,-0.89253 0.05821,-1.86267 0.0194,-0.34925 0.155223,-0.89252 0.0194,-0.50448 0.135819,-0.98955 0.116417,-0.50447 0.446264,-0.95073 0.659695,-0.87313 1.222375,-1.45521 0.562681,-0.58208 1.202972,-0.95074 0.640292,-0.38805 1.416403,-0.60148 0.776111,-0.23284 1.862667,-0.38806 0.407458,-0.0582 0.814917,0.0776 0.407458,0.13582 0.814916,0.21343 0.620889,0.11642 1.067153,0.48507 0.446264,0.34925 0.795514,0.83432 0.911931,0.7179 1.513417,1.68804 0.620889,0.95074 0.659694,1.94028 0.03881,0.60149 0.13582,1.22238 0.09701,0.60148 -0.07761,1.16416 -0.09701,0.27164 -0.155223,0.58209 -0.0388,0.29104 -0.116416,0.58208 -0.05821,0.29104 -0.174625,0.56268 -0.09701,0.27164 -0.271639,0.50447 -0.776111,0.97014 -1.299986,1.53282 -0.504473,0.56268 -1.008945,0.83432 -0.271639,0.29104 -0.601486,0.56268 -0.310444,0.25224 -0.659694,0.42686 -0.34925,0.17463 -0.737306,0.23284 -0.388056,0.0582 -0.814917,-0.0388 z m 3.220862,-11.00137 q 0.21343,0.0776 0.407458,0.25223 0.194028,0.15522 0.34925,0.36866 l -0.174625,-0.36866 q -0.09701,-0.0582 -0.310445,-0.19403 -0.21343,-0.13582 -0.368652,-0.23283 -0.48507,-0.32985 -0.950737,-0.58208 -0.465666,-0.27164 -1.086555,-0.25224 -0.659695,0.0194 -1.377597,0.11642 -0.6985,0.097 -1.397,0.29104 -0.6985,0.19403 -1.358195,0.50447 -0.640292,0.31045 -1.183569,0.73731 l -0.116417,0.15522 q -0.48507,0.73731 -0.776111,1.55222 -0.271639,0.81492 -0.368653,1.62984 0.0388,0.38805 0.116417,0.7567 0.07761,0.36866 0.174625,0.6985 0.232833,0.85373 0.620889,1.80446 0.407458,0.93134 1.067152,1.61043 0.426861,0.31045 0.950737,0.54328 0.543277,0.23283 1.164166,0.34925 0.582084,0.0388 1.18357,-0.0582 0.620889,-0.11641 1.202972,-0.29104 0.582083,-0.19403 1.086556,-0.44626 0.523875,-0.25224 0.892527,-0.54328 0.291042,-0.21343 0.543278,-0.46567 0.252236,-0.27164 0.48507,-0.56268 0.34925,-0.93133 0.485069,-1.95968 0.155222,-1.02835 0.03881,-1.99848 -0.09701,-0.97014 -0.48507,-1.78506 -0.368653,-0.81492 -1.04775,-1.31939 -0.194028,-0.13582 -0.426861,-0.21343 -0.213431,-0.097 -0.446264,-0.15522 -0.232833,-0.0582 -0.465667,-0.097 -0.232833,-0.0582 -0.465666,-0.13582 -0.194028,-0.097 -0.09701,-0.25223 0.09701,-0.15522 0.271639,-0.0776 0.465666,0.15522 0.931333,0.31044 0.465667,0.13582 0.931334,0.31045 z m -7.780515,8.382 q -0.6985,-0.73731 -1.008944,-1.51342 -0.291042,-0.79551 -0.329847,-1.64924 l -0.13582,-0.42686 q -0.0388,1.22238 0.291042,2.42535 0.34925,1.18357 1.144764,2.03729 0.232833,0.23283 0.426861,0.38806 0.194028,0.15522 0.407458,0.27164 0.213431,0.11641 0.446264,0.21343 0.232833,0.0776 0.543278,0.17462 0.0194,0.0194 0.05821,0.0194 -0.310444,-0.13582 -0.485069,-0.29104 -0.213431,-0.15522 -0.48507,-0.50447 -0.252236,-0.34925 -0.523875,-0.79551 z m 3.337278,-9.83721 q -0.91193,0.32984 -1.823861,0.98954 0.950736,-0.46567 2.0955,-0.6985 0.562681,-0.13582 1.202972,-0.21343 0.640292,-0.0776 1.222375,0.0194 0.232834,0.0388 0.6985,0.23283 0.48507,0.17463 0.970139,0.42687 l -0.194027,-0.11642 q -0.853723,-0.54328 -1.726848,-0.73731 v 0.11642 q -0.504472,-0.0776 -0.989541,-0.13582 -0.48507,-0.0582 -0.970139,-0.0194 -0.116417,0.0388 -0.252236,0.0776 -0.116417,0.0194 -0.232834,0.0582 z m 5.685014,3.12385 q 0.174625,0.48506 0.271639,1.02834 0.09701,0.54328 0.13582,1.08656 0.05821,0.54328 0.05821,1.06715 0,0.50447 -0.05821,0.91193 0.232833,-0.6985 0.271639,-1.4164 0.0388,-0.73731 -0.174625,-1.47461 -0.09701,-0.29104 -0.232834,-0.60149 -0.116416,-0.31044 -0.271639,-0.60148 z m 1.008945,3.27906 q -0.213431,1.397 -1.067153,2.50296 -0.07761,0.27164 -0.174625,0.54328 -0.07761,0.25224 -0.232833,0.46567 0.640291,-0.6985 1.008944,-1.61043 0.368653,-0.91193 0.465667,-1.90148 z m -1.979084,3.4731 q -0.34925,0.29104 -0.795513,0.58209 0,0.0776 -0.0194,0.11641 -0.213431,0.31045 -0.504473,0.54328 0.310445,-0.11642 0.640292,-0.29104 0.194028,-0.21343 0.34925,-0.44627 0.174625,-0.23283 0.329847,-0.50447 z m 1.086556,-7.43126 q 0.252236,0.52387 0.465667,1.02835 0.232833,0.50447 0.368653,1.04775 -0.271639,-1.47462 -1.105959,-2.59998 z m -3.065639,8.63423 q -0.485069,0.19403 -1.067153,0.31045 h 0.09701 q 0.271639,-0.0776 0.523875,-0.15522 0.252236,-0.0776 0.446264,-0.15523 z"
         style="font-style:normal;font-variant:normal;font-weight:normal;font-stretch:normal;font-size:19.40277863px;line-height:1;font-family:'the unseen';-inkscape-font-specification:'the unseen';text-align:center;text-anchor:middle;stroke-width:0.26458332"
         id="path114" />
      <path
         d="m 27.560584,269.82903 q 0,-0.19403 0.13582,-0.21343 0.155222,-0.0388 0.232833,0.11642 0.194028,1.02834 0.6985,1.92087 0.523875,0.89253 1.105958,1.74625 0.582084,0.85372 1.125362,1.72685 0.56268,0.85372 0.853722,1.78505 0.56268,-1.88207 1.338792,-3.68652 0.776111,-1.82386 1.862666,-3.4731 l 0.368653,0.097 q 0,0.15523 -0.0194,0.31045 0,0.15522 -0.0194,0.31044 0.09701,-0.11641 0.155222,-0.21343 0.07761,-0.097 0.155222,-0.17462 l 0.271639,0.0388 q 0,0 0.0388,0.0388 0.05821,0.13582 0,0.21343 -0.0388,0.0776 -0.135819,0.097 -0.213431,0.25224 -0.388056,0.58209 -0.174625,0.31044 -0.329847,0.67909 -0.155222,0.64029 -0.407458,1.26118 -0.252236,0.62089 -0.543278,1.24178 -0.271639,0.62089 -0.543278,1.26118 -0.252236,0.62089 -0.523875,1.24178 -0.310444,0.6985 -0.56268,1.29999 -0.232834,0.58208 -0.271639,1.33879 l -0.368653,0.097 -0.155222,-0.25224 -0.09701,0.0776 q -0.194028,0 -0.291042,0.0194 -0.931333,-1.33879 -1.571625,-2.794 -0.640292,-1.45521 -1.241778,-2.94922 -0.446264,-0.87313 -0.91193,-1.72685 -0.465667,-0.87313 -0.776112,-1.80446 0,-0.17462 0.116417,-0.21343 l 0.252236,-0.21343 q 0,0.0194 0,0.0388 0.0194,0 0.0194,0.0194 h 0.0194 q 0.21343,0.38805 0.407458,0.79551 0.194028,0.40746 0.368653,0.83432 0.814917,1.74625 1.610431,3.4537 0.814916,1.70744 1.843264,3.35668 l 0.116416,-0.42686 q -0.271639,-1.08656 -0.853722,-2.0373 -0.562681,-0.95073 -1.18357,-1.86266 -0.620888,-0.93134 -1.164166,-1.88207 -0.523875,-0.97014 -0.737306,-2.0761 z m 4.54025,7.23724 q -0.0388,0.15522 -0.07761,0.29104 -0.0388,0.11641 -0.07761,0.25223 0.0194,0.0194 0.0194,0.0582 0,0.0776 -0.0194,0.13582 0,0.0582 -0.05821,0.11642 l -0.116417,0.48507 q 0.03881,-0.0582 0.05821,-0.11642 0.03881,-0.0582 0.07761,-0.13582 0.05821,-0.21343 0.155222,-0.44626 0.09701,-0.23284 0.21343,-0.46567 0.07761,-0.21343 0.155223,-0.42686 0.07761,-0.23283 0.174625,-0.46567 0.174625,-0.38805 0.34925,-0.7567 0.194027,-0.38806 0.407458,-0.77612 0.271639,-0.6985 0.601486,-1.57162 0.329847,-0.89253 0.6985,-1.64924 0.03881,-0.21343 0.07761,-0.42686 0.03881,-0.23283 0.07761,-0.46566 -0.892527,1.51341 -1.552222,3.10444 -0.659694,1.57162 -1.164167,3.25967 z"
         style="font-style:normal;font-variant:normal;font-weight:normal;font-stretch:normal;font-size:19.40277863px;line-height:1;font-family:'the unseen';-inkscape-font-specification:'the unseen';text-align:center;text-anchor:middle;stroke-width:0.26458332"
         id="path116" />
      <path
         d="m 44.71264,270.13947 q 0.13582,0.0388 0.174625,0.13582 0.03881,0.0776 0,0.15523 0.13582,-0.0388 0.194028,0.11641 0.07761,0.13582 -0.05821,0.23284 -0.291042,0.17462 -0.543278,0.40745 -0.252236,0.21344 -0.465667,0.48507 0.174625,0 0.13582,0.25224 l -0.03881,0.0776 0.0194,-0.0194 q 0.155222,-0.097 0.252236,0.0194 0.116417,0.097 0.03881,0.25224 l -0.756709,0.7179 q -0.329847,0.60149 -0.776111,1.26118 -0.446264,0.64029 -0.931333,1.28058 -0.48507,0.62089 -0.989542,1.22238 -0.504472,0.58208 -0.931333,1.08655 0.970139,0.0194 1.901472,-0.0388 0.931334,-0.0776 1.862667,-0.44626 0.194028,-0.0776 0.368653,-0.25224 0.194027,-0.17463 0.368652,-0.34925 0.194028,-0.17463 0.388056,-0.29104 0.194028,-0.13582 0.407458,-0.11642 0.05821,0.0388 0.09701,0.0776 0.05821,0.0194 0.09701,0.0582 0.03881,0.0776 0.03881,0.13582 0.0388,0.19403 -0.13582,0.25224 -0.155222,0.0388 -0.232833,-0.11642 -0.271639,0.097 -0.523875,0.38805 -0.232833,0.29105 -0.465667,0.44627 -0.174625,0.11642 -0.407458,0.19403 -0.232833,0.0582 -0.426861,0.13582 -0.601486,0.21343 -1.241778,0.27163 -0.640292,0.0582 -1.280583,0.0582 0.756708,0.17463 1.532819,0.097 0.640292,-0.0582 1.202972,-0.23284 0.582084,-0.19402 1.105959,-0.56268 l 0.814916,-0.58208 q 0.09701,-0.13582 0.232834,-0.0776 0.135819,0.0582 0.116416,0.21343 0.155223,-0.0776 0.252237,0.0776 0.09701,0.13582 -0.05821,0.25224 -0.582083,0.44626 -1.144764,0.81491 -0.56268,0.36866 -1.164166,0.58209 -0.213431,0.15522 -0.426862,0.31044 -0.21343,0.13582 -0.465666,0.27164 -0.640292,0.31044 -1.435806,0.27164 -0.776111,-0.0194 -1.513417,-0.29104 -0.737305,-0.27164 -1.358194,-0.75671 -0.620889,-0.48507 -0.931333,-1.10596 l -0.09701,-0.19403 q -0.194028,0.0776 -0.252237,-0.13582 l -0.252236,-0.79551 q -0.05821,-0.15522 -0.09701,-0.27164 -0.0194,-0.11642 -0.05821,-0.29104 l -0.0388,-0.15522 q -0.03881,-0.0776 -0.03881,-0.13582 0,-0.0776 -0.0194,-0.15523 -0.0194,-0.097 -0.0194,-0.19402 0,-0.097 0,-0.21343 l -0.03881,-0.25224 q -0.05821,-0.40746 0,-0.83432 0.07761,-0.42686 0.291042,-0.77611 0.21343,-0.38806 0.407458,-0.77611 0.213431,-0.38806 0.485069,-0.7179 0.543278,-0.62089 1.008945,-0.97014 0.485069,-0.36866 0.931333,-0.54328 0.465667,-0.19403 0.931334,-0.23283 0.485069,-0.0388 1.008944,0 0.523875,0.0194 1.125361,0.097 0.620889,0.0582 1.358195,0.0776 0.09701,0.0194 0.174625,0.097 z m -6.829778,5.5298 q 0.232834,0.62089 0.659695,1.14476 0.407458,-0.44626 0.776111,-0.93133 0.368653,-0.48507 0.776111,-0.93134 0.523875,-0.58208 1.04775,-1.14476 0.543278,-0.56268 1.04775,-1.14476 0.329848,-0.36866 0.620889,-0.6985 0.310445,-0.34925 0.659695,-0.6791 -0.232834,-0.15522 -0.465667,-0.31045 -0.213431,-0.15522 -0.485069,-0.25223 -0.737306,-0.25224 -1.455209,-0.13582 -0.717903,0.097 -1.358194,0.46567 -0.640292,0.34925 -1.164167,0.91193 -0.523875,0.56268 -0.853722,1.20297 -0.09701,0.32985 -0.116417,0.6791 -0.0194,0.34925 0.0194,0.67909 0.0388,0.29104 0.116416,0.58209 0.07761,0.29104 0.174625,0.56268 z m 3.802945,-0.89253 q -0.446264,0.60148 -0.873125,1.22237 -0.426861,0.62089 -0.814917,1.26118 0.659695,-0.7373 1.358195,-1.61043 0.6985,-0.87312 1.299986,-1.74625 z m -2.832806,2.36714 q 0.232834,0.25223 0.504473,0.44626 0.271638,-0.48507 0.56268,-0.93133 0.291042,-0.46567 0.601486,-0.91193 -0.271639,0.21343 -0.504472,0.40746 -0.232833,0.19402 -0.446264,0.34925 -0.194028,0.15522 -0.368653,0.32984 -0.155222,0.15523 -0.34925,0.31045 z m 0.407459,0.97014 q 0,-0.0388 0.0388,-0.0776 -0.05821,-0.0194 -0.05821,-0.097 -0.213431,-0.11642 -0.388056,-0.25223 -0.174625,-0.13582 -0.329847,-0.29105 -0.0194,0 -0.0388,0.0194 l -0.232834,-0.29105 q -0.388055,-0.44626 -0.659694,-0.97013 -0.271639,-0.54328 -0.368653,-1.18357 0,0.87312 0.388056,1.66864 0.407458,0.79551 1.338791,1.29998 z m 2.192514,-3.66713 0.426861,-0.58208 q 0.194028,-0.25224 0.368653,-0.52388 0.194027,-0.29104 0.407458,-0.58208 -0.562681,0.62089 -1.144764,1.24178 -0.582083,0.60148 -1.144764,1.22237 l -0.407458,0.46567 z m -0.873125,4.48204 q -0.329848,-0.11641 -0.6985,-0.17462 -0.34925,-0.0582 -0.679098,-0.19403 0.737306,0.48507 1.53282,0.64029 0.814917,0.13582 1.61043,-0.097 -0.426861,0.0388 -0.814916,-0.0194 -0.213431,-0.0388 -0.465667,-0.0388 -0.252236,-0.0194 -0.485069,-0.11642 z m 3.667125,-8.36259 q 0,-0.0194 0,-0.0194 0.0194,-0.0194 0.0194,-0.0388 -0.368653,-0.0194 -0.737306,-0.0388 -0.368653,-0.0194 -0.756708,-0.0582 0.232833,0.11642 0.465666,0.27164 0.232834,0.15522 0.523875,0.34925 l 0.05821,-0.0582 q 0.07761,-0.0582 0.21343,-0.17462 0.155222,-0.11642 0.213431,-0.23283 z m -0.873125,2.1537 q 0.09701,-0.15522 0.174625,-0.32984 0.07761,-0.17463 0.135819,-0.32985 l -0.795514,1.10596 v 0.0194 z m -3.744737,5.5492 q 0.329848,0.15522 0.620889,0.23283 0.310445,0.0776 0.640292,0.13582 -0.329847,-0.0582 -0.620889,-0.17462 -0.291041,-0.11642 -0.582083,-0.27164 z m 4.967112,-7.74171 q 0,0.0194 0,0.0388 0.0194,0 0.0194,0.0194 l 0.07761,-0.0582 z"
         style="font-style:normal;font-variant:normal;font-weight:normal;font-stretch:normal;font-size:19.40277863px;line-height:1;font-family:'the unseen';-inkscape-font-specification:'the unseen';text-align:center;text-anchor:middle;stroke-width:0.26458332"
         id="path118" />
      <path
         d="m 46.284267,269.80963 q 0,-0.21343 0.174625,-0.23284 0.174625,-0.0194 0.213431,0.19403 0,0.46567 0,0.93134 0,0.44626 0.0194,0.89252 0,-0.56268 0.0388,-1.14476 0.05821,-0.58208 0.310445,-1.04775 v -0.0194 q 0,0 0.0194,-0.0194 l 0.368652,0.097 q -0.116416,0.93133 -0.116416,1.82386 0.426861,-0.48507 1.008944,-0.83432 0.582084,-0.36865 1.202972,-0.56268 0.640292,-0.21343 1.280584,-0.21343 0.640292,-0.0194 1.202972,0.19403 0.582084,0.19402 1.028347,0.65969 0.446264,0.44626 0.6985,1.18357 0.116417,0.38806 0.13582,0.79551 0.0194,0.38806 0.0194,0.77611 v 0.0388 q -0.155223,0 -0.232834,-0.0194 l -0.155222,0.0194 q -0.05821,-0.50447 -0.291042,-1.00894 -0.232833,-0.50448 -0.582083,-0.91193 -0.34925,-0.40746 -0.814917,-0.6791 -0.465666,-0.27164 -0.989541,-0.31045 -0.34925,-0.0388 -0.679098,0.15523 -0.310444,0.17462 -0.601486,0.32984 -0.252236,0.11642 -0.446264,0.21343 -0.174625,0.0776 -0.329847,0.19403 -0.155222,0.097 -0.310444,0.27164 -0.13582,0.15522 -0.310445,0.40746 -0.659694,0.97014 -0.795514,2.21192 -0.116416,1.24177 -0.05821,2.65818 0.09701,0.65969 0.155222,1.31938 0.07761,0.6597 -0.0194,1.3388 v 0.0388 0.0194 h -0.0194 v 0.0194 0.0388 h -0.0194 q -0.03881,0.097 -0.155222,0.097 -0.09701,0.0194 -0.155223,-0.0582 v 0.0194 q -0.155222,0.097 -0.271639,0.0194 -0.116416,-0.0776 -0.05821,-0.23283 v -0.0388 l -0.07761,0.36865 -0.291042,-0.097 h -0.09701 v -0.0194 q 0,-0.60148 0.05821,-1.22237 0.05821,-0.6403 0.155222,-1.28059 v -0.58208 q -0.07761,-0.81492 -0.155222,-1.53282 -0.07761,-0.73731 0.0194,-1.61043 -0.03881,-0.93133 -0.05821,-1.82386 -0.0194,-0.89253 -0.0194,-1.82386 z m 1.144764,1.95968 q -0.03881,0.0388 -0.07761,0.097 -0.0194,0.0582 -0.05821,0.097 v 0.83432 q 0.213431,-0.71791 0.562681,-1.08656 0.543277,-0.62089 1.202972,-1.04775 0.659694,-0.44626 1.338792,-0.56268 0.679097,-0.11642 1.338791,0.15522 0.679098,0.27164 1.261181,1.04775 l 0.34925,0.50447 q -0.34925,-1.02834 -1.125361,-1.4164 -0.776111,-0.40746 -1.668639,-0.32985 -0.892528,0.0776 -1.74625,0.54328 -0.853723,0.46567 -1.377598,1.16417 z m -0.504472,5.37457 q 0,0.0194 0,0.0776 0,0.0388 0.0194,0.13582 0,-0.097 -0.0194,-0.17463 0,-0.097 0,-0.19402 0,0.0194 -0.0194,0.0388 0,0 0,0.0388 0,0.0194 0,0.0388 0.0194,0.0194 0.0194,0.0388 z"
         style="font-style:normal;font-variant:normal;font-weight:normal;font-stretch:normal;font-size:19.40277863px;line-height:1;font-family:'the unseen';-inkscape-font-specification:'the unseen';text-align:center;text-anchor:middle;stroke-width:0.26458332"
         id="path120" />
    </g>
    <g
       aria-label="/"
       style="font-style:normal;font-weight:normal;font-size:10.58333302px;line-height:1.25;font-family:sans-serif;letter-spacing:0px;word-spacing:0px;fill:#000000;fill-opacity:1;stroke:none;stroke-width:0.26458332"
       id="text92">
      <path
         d="m 23.868443,265.80789 q 0.04233,0.14816 -0.04233,0.21166 -0.0635,0.0635 -0.169334,0.0635 -0.105833,0.10584 -0.232833,0.3175 -0.105833,0.21167 -0.254,0.48684 -0.127,0.27516 -0.275167,0.59266 -0.127,0.3175 -0.254,0.635 -0.127,0.48684 -0.254,0.97367 -0.127,0.48683 -0.275167,0.97367 -0.338666,1.03716 -0.6985,2.05316 -0.359833,1.016 -0.719666,2.032 l -0.254,0.8255 q -0.127,0.42334 -0.296334,0.80434 -0.169333,0.381 -0.359833,0.762 l -0.148167,0.40216 q -0.232833,0.5715 -0.423333,1.12184 -0.1905,0.55033 -0.338667,1.12183 l -0.127,0.508 q 0,0.0635 -0.02117,0.127 0,0.0423 0,0.0847 -0.02117,0 -0.105834,-0.0423 l -0.0635,-0.0212 -0.148166,-0.0423 -0.08467,-0.0423 q 0,-0.0423 0,-0.0847 0.02117,-0.0423 0.02117,-0.0847 l 0.105833,-0.508 q 0.105833,-0.46567 0.232833,-0.91017 0.127,-0.4445 0.296334,-0.86783 l 0.169333,-0.42334 q 0.275167,-0.6985 0.550333,-1.397 0.296334,-0.6985 0.550334,-1.397 l 0.0635,-0.1905 q 0.127,-0.40216 0.232833,-0.80433 0.105833,-0.40217 0.211667,-0.8255 -0.359834,0.889 -0.762,1.7145 -0.402167,0.8255 -0.762,1.7145 -0.127,0.3175 -0.338667,1.03717 -0.1905,0.6985 -0.4445,1.41816 -0.254,0.71967 -0.5715,1.27 -0.3175,0.55034 -0.677334,0.5715 -0.275166,-0.1905 -0.275166,-0.4445 0.02117,-0.27516 0.148166,-0.55033 0.148167,-0.27517 0.338667,-0.52917 0.1905,-0.254 0.296334,-0.42333 0.169333,-0.254 0.296333,-0.5715 0.127,-0.3175 0.232833,-0.52917 0.105834,-0.27516 0.211667,-0.52916 0.105833,-0.27517 0.211667,-0.52917 0.635,-1.60867 1.143,-3.2385 0.529166,-1.651 1.016,-3.302 0.275166,-0.93133 0.508,-1.86267 0.254,-0.9525 0.677333,-1.8415 0.105833,-0.0423 0.1905,-0.0423 0.08467,-0.0212 0.1905,-0.0423 0,0 0.04233,0.0423 0.04233,0.127 0.04233,0.16933 l 0.275166,-0.508 q -0.04233,-0.127 0.0635,-0.23283 0.04233,-0.0423 0.127,-0.0847 0.169333,0.127 0.296333,0.29634 -0.254,0.42333 -0.4445,0.74083 -0.169334,0.29633 -0.338667,0.59267 -0.148167,0.29633 -0.296333,0.67733 -0.127,0.35983 -0.254,0.91017 -0.08467,0.33866 -0.148167,0.65616 -0.04233,0.3175 -0.105833,0.65617 0.02117,-0.0847 0.04233,-0.14817 0.02117,-0.0635 0.0635,-0.14816 l 0.465667,-1.24884 q 0.105833,-0.381 0.211666,-0.74083 0.127,-0.381 0.232834,-0.67733 0.127,-0.29634 0.232833,-0.48684 0.105834,-0.21166 0.211667,-0.254 0.105833,-0.0423 0.1905,0.0423 0.148167,-0.14817 0.275167,-0.21167 l 0.275166,0.127 q 0.02117,0.0212 0.02117,0.0847 z m -6.392334,13.48316 q 0.105834,-0.16933 0.1905,-0.35983 0.105834,-0.21167 0.1905,-0.40217 -0.148166,0.16934 -0.275166,0.33867 -0.105834,0.14817 -0.105834,0.42333 z m 3.407834,-8.55133 q 0.148166,-0.508 0.254,-1.016 l -0.423334,1.48167 z"
         style="font-style:normal;font-variant:normal;font-weight:normal;font-stretch:normal;font-size:21.16666794px;font-family:'the unseen';-inkscape-font-specification:'the unseen';stroke-width:0.26458332"
         id="path126" />
    </g>
    <g
       aria-label="%"
       style="font-style:normal;font-weight:normal;font-size:10.58333302px;line-height:1.25;font-family:sans-serif;letter-spacing:0px;word-spacing:0px;fill:#000000;fill-opacity:1;stroke:none;stroke-width:0.26458332"
       id="text96">
      <path
         d="m 26.83379,276.93901 q 0.01411,0.0494 -0.01411,0.0706 -0.02117,0.0212 -0.05645,0.0212 -0.03528,0.0353 -0.07761,0.10583 -0.03528,0.0706 -0.08467,0.16228 -0.04233,0.0917 -0.09172,0.19755 -0.04233,0.10584 -0.08467,0.21167 -0.04233,0.16228 -0.08467,0.32456 -0.04233,0.16227 -0.09172,0.32455 -0.112889,0.34572 -0.232833,0.68439 -0.119945,0.33867 -0.239889,0.67733 l -0.08467,0.27517 q -0.04233,0.14111 -0.09878,0.26811 -0.05644,0.127 -0.119944,0.254 l -0.04939,0.13406 q -0.07761,0.1905 -0.141111,0.37394 -0.0635,0.18345 -0.112889,0.37395 l -0.04233,0.16933 q 0,0.0212 -0.0071,0.0423 0,0.0141 0,0.0282 -0.0071,0 -0.03528,-0.0141 l -0.02117,-0.007 -0.04939,-0.0141 -0.02822,-0.0141 q 0,-0.0141 0,-0.0282 0.0071,-0.0141 0.0071,-0.0282 l 0.03528,-0.16933 q 0.03528,-0.15522 0.07761,-0.30339 0.04233,-0.14817 0.09878,-0.28928 l 0.05644,-0.14111 q 0.09172,-0.23283 0.183445,-0.46567 0.09878,-0.23283 0.183444,-0.46566 l 0.02117,-0.0635 q 0.04233,-0.13406 0.07761,-0.26811 0.03528,-0.13406 0.07055,-0.27517 -0.119944,0.29633 -0.254,0.5715 -0.134055,0.27517 -0.254,0.5715 -0.04233,0.10583 -0.112889,0.34572 -0.0635,0.23283 -0.148166,0.47272 -0.08467,0.23989 -0.1905,0.42334 -0.105834,0.18344 -0.225778,0.1905 -0.09172,-0.0635 -0.09172,-0.14817 0.0071,-0.0917 0.04939,-0.18344 0.04939,-0.0917 0.112889,-0.17639 0.0635,-0.0847 0.09878,-0.14111 0.05645,-0.0847 0.09878,-0.1905 0.04233,-0.10584 0.07761,-0.17639 0.03528,-0.0917 0.07056,-0.17639 0.03528,-0.0917 0.07056,-0.17639 0.211667,-0.53622 0.381,-1.0795 0.176389,-0.55033 0.338667,-1.10067 0.09172,-0.31044 0.169333,-0.62089 0.08467,-0.3175 0.225778,-0.61383 0.03528,-0.0141 0.0635,-0.0141 0.02822,-0.007 0.0635,-0.0141 0,0 0.01411,0.0141 0.01411,0.0423 0.01411,0.0564 l 0.09172,-0.16933 q -0.01411,-0.0423 0.02117,-0.0776 0.01411,-0.0141 0.04233,-0.0282 0.05644,0.0423 0.09878,0.0988 -0.08467,0.14112 -0.148166,0.24695 -0.05645,0.0988 -0.112889,0.19755 -0.04939,0.0988 -0.09878,0.22578 -0.04233,0.11995 -0.08467,0.30339 -0.02822,0.10583 -0.04939,0.20461 -0.01411,0.0988 -0.02822,0.20461 l 0.02822,-0.0705 0.155223,-0.41628 q 0.03528,-0.127 0.07056,-0.24694 0.04233,-0.127 0.07761,-0.22578 0.04233,-0.0988 0.07761,-0.16228 0.03528,-0.0706 0.07056,-0.0847 0.03528,-0.0141 0.0635,0.0141 0.04939,-0.0494 0.09172,-0.0705 l 0.09172,0.0423 q 0.0071,0.007 0.0071,0.0282 z m -2.0955,0.75495 q 0.04939,0.0141 0.0635,0.0423 0.01411,0.0282 0,0.0564 0.04233,0.0141 0.08467,0.0353 0.04939,0.0141 0.09878,0.0423 0.05645,0.0282 0.134056,0.0847 0.07761,0.0564 0.148167,0.13406 0.07055,0.0706 0.119944,0.15522 0.04939,0.0776 0.04939,0.15522 0,0.0776 0.01411,0.16934 0.01411,0.0917 -0.04233,0.15522 -0.05645,0.0706 -0.119945,0.14817 -0.0635,0.0706 -0.148166,0.11994 -0.197556,0.10583 -0.402167,0.11995 -0.254,0.0776 -0.515056,0 -0.261055,-0.0776 -0.465666,-0.23989 -0.04939,-0.0353 -0.0635,-0.0917 -0.01411,-0.0564 -0.02117,-0.11994 -0.0071,-0.0706 0,-0.15522 0,-0.0212 -0.0071,-0.0353 0,-0.0212 -0.0071,-0.0423 -0.01411,-0.0564 0,-0.11289 0.02117,-0.0564 0.04939,-0.0988 0.09172,-0.13406 0.1905,-0.22578 l 0.112889,-0.127 q 0.119944,-0.11289 0.225778,-0.15522 0.105833,-0.0423 0.261055,-0.0706 0.04939,-0.007 0.09172,0.0141 0.04233,0.0212 0.07761,0.0494 0.01411,0 0.03528,0 0.02117,-0.007 0.03528,-0.007 z m 1.580444,2.81517 q -0.225777,-0.15523 -0.303388,-0.33162 -0.07056,-0.18344 -0.02822,-0.34572 -0.02117,-0.19755 0.0635,-0.3175 0.09172,-0.11994 0.239889,-0.17639 0.155222,-0.0635 0.345722,-0.0635 0.1905,0 0.366889,0.0423 0.183445,0.0423 0.331611,0.127 0.148167,0.0776 0.211667,0.18344 0.04939,0.0706 0.112889,0.14817 0.07056,0.0776 0.04233,0.16228 -0.01411,0.0776 -0.03528,0.16227 -0.01411,0.0847 -0.08467,0.127 -0.04233,0.0282 -0.09878,0.0635 -0.04939,0.0282 -0.105833,0.0635 l -0.0635,0.0776 q -0.04233,0.0564 -0.119945,0.0776 -0.07055,0.0141 -0.162278,0 -0.183444,0.0776 -0.380999,0.0917 -0.1905,0.007 -0.331612,-0.0917 z m 0.141112,-0.43039 q 0.02117,0.0564 0,0.0847 0.02822,0.0141 0.04939,0.0282 0.02822,0.0141 0.0635,0.0282 l 0.1905,0.0847 q 0.09878,0.0212 0.169334,0.007 0.0635,-0.007 0.155222,-0.0282 0.09878,-0.0282 0.183444,-0.0776 0.05645,-0.16228 -0.01411,-0.28928 -0.07055,-0.13406 -0.197555,-0.21872 -0.127,-0.0917 -0.275167,-0.127 -0.148167,-0.0353 -0.261055,0.007 -0.105834,0.0353 -0.141112,0.16228 -0.03528,0.11994 0.07761,0.33867 z m -1.876778,-1.24884 q 0.04233,0.0141 0.05644,0.0282 0.112889,-0.0776 0.169334,-0.19756 0.05644,-0.127 0.02822,-0.254 -0.02822,-0.127 -0.155222,-0.23283 -0.119945,-0.11289 -0.359834,-0.15523 -0.02822,-0.0141 -0.04233,-0.0282 -0.119945,0.0917 -0.176389,0.23284 -0.05644,0.14111 -0.02822,0.27516 0.02822,0.13406 0.148166,0.23284 0.119945,0.0917 0.359834,0.0988 z m 0.543278,-0.57855 q -0.09172,-0.0706 -0.197556,-0.127 -0.105833,-0.0635 -0.204611,-0.11289 0.0635,0.0423 0.112889,0.11289 0.04939,0.0706 0.105833,0.16933 0.07761,0.14817 0.03528,0.33161 -0.04233,0.17639 -0.162278,0.30339 0.112889,-0.0423 0.204611,-0.0917 0.09172,-0.0564 0.148167,-0.11995 0.04233,-0.0423 0.05644,-0.0988 0.01411,-0.0635 0.04233,-0.11995 -0.03528,-0.0635 -0.0635,-0.13405 -0.02117,-0.0706 -0.07761,-0.11289 z m -1.248834,0.0212 q -0.07055,0.14112 -0.07055,0.28223 0,0.14111 0.119944,0.22577 0.05645,0.0494 0.09878,0.0635 -0.176389,-0.22577 -0.148167,-0.56444 z m 2.737556,2.16606 q -0.268111,-0.0564 -0.4445,-0.23283 0.04939,0.0988 0.155222,0.16933 0.112889,0.0635 0.289278,0.0635 z m 0.776111,-0.48683 q 0.01411,0.0141 0.01411,0.0353 0.0071,0.0212 0.02117,0.0423 v -0.0212 q 0.01411,-0.0776 -0.03528,-0.14817 -0.04939,-0.0776 -0.105834,-0.11994 l -0.03528,-0.0212 q 0.04233,0.0564 0.07761,0.11995 0.03528,0.0564 0.0635,0.11289 z m -2.688167,1.48166 q 0.03528,-0.0564 0.0635,-0.11994 0.03528,-0.0706 0.0635,-0.13406 -0.04939,0.0565 -0.09172,0.11289 -0.03528,0.0494 -0.03528,0.14111 z m 1.135945,-2.85044 q 0.04939,-0.16933 0.08467,-0.33867 l -0.141111,0.49389 z m 0.430389,1.41817 q -0.04939,-0.16934 -0.02117,-0.28223 -0.07761,0.13406 0.02117,0.28223 z"
         style="font-style:normal;font-variant:normal;font-weight:normal;font-stretch:normal;font-size:7.05555534px;font-family:'the unseen';-inkscape-font-specification:'the unseen';stroke-width:0.26458332"
         id="path123" />
    </g>
  </g>
</svg>
